<svg width="1440" height="833" viewBox="0 0 1440 833" fill="none" xmlns="http://www.w3.org/2000/svg">
<g opacity="0.1" clip-path="url(#clip0_125_209)">
<mask id="mask0_125_209" style="mask-type:luminance" maskUnits="userSpaceOnUse" x="-684" y="0" width="2142" height="833">
<path d="M1458 0H-684V833H1458V0Z" fill="white"/>
</mask>
<g mask="url(#mask0_125_209)">
<path d="M-568.243 463.773L-471.615 519.554M-568.243 463.773L-664.856 519.554V631.116L-568.243 686.898M-568.243 463.773V352.21L-471.615 296.429M-471.615 519.554V631.116M-471.615 519.554L-375.002 463.773M-471.615 631.116L-568.243 686.898M-471.615 631.116L-375.002 686.898M-568.243 686.898V798.46L-471.615 854.241L-375.002 798.46M-278.374 296.429V184.866L-375.002 129.085L-471.615 184.866V296.429M-278.374 296.429L-375.002 352.21M-278.374 296.429L-181.761 352.21V463.773L-278.374 519.554L-375.002 463.773M-375.002 352.21L-471.615 296.429M-375.002 352.21V463.773M-375.002 686.898V798.46M-375.002 686.898L-278.374 631.116L-181.761 686.898V798.46L-278.374 854.241L-375.002 798.46M11.4806 798.46L108.094 854.241M11.4806 798.46L-85.1474 854.241V965.804L11.4806 1021.59L108.094 965.804M11.4806 798.46V686.898L108.094 631.116L204.707 686.898V798.46M108.094 854.241V965.804M108.094 854.241L204.707 798.46M108.094 965.804L204.707 1021.59L301.335 965.804V854.241L204.707 798.46M301.335 184.866L204.707 129.085L108.094 184.866V296.429L204.707 352.21L301.335 296.429M301.335 184.866V296.429M301.335 184.866L397.948 129.085L494.576 184.866V296.429L397.948 352.21L301.335 296.429M977.656 129.085V17.5227L881.043 -38.2585L784.43 17.5227V129.085L881.043 184.866M977.656 129.085L881.043 184.866M977.656 129.085L1074.28 184.866M881.043 184.866V296.429L977.656 352.21L1074.28 296.429M1074.28 184.866V296.429M1074.28 184.866L1170.9 129.085L1267.51 184.866M1074.28 296.429L1170.9 352.21L1267.51 296.429M1267.51 184.866V296.429M1267.51 184.866L1364.14 129.085L1460.75 184.866V296.429M1267.51 296.429L1364.14 352.21M1460.75 296.429L1364.14 352.21M1460.75 296.429L1557.38 352.21V463.773L1460.75 519.554M1364.14 352.21V463.773M1364.14 463.773L1460.75 519.554M1364.14 463.773L1267.51 519.554V631.116L1364.14 686.898L1460.75 631.116V519.554M-85.1474 -38.2585L11.4806 17.5227V129.085L-85.1474 184.866L-181.761 129.085V17.5227L-85.1474 -38.2585ZM784.43 463.773L881.043 519.554V631.116L784.43 686.898L687.802 631.116V519.554L784.43 463.773ZM1074.28 631.116L1170.9 686.898V798.46L1074.28 854.241L977.656 798.46V686.898L1074.28 631.116Z" stroke="#4762E6" stroke-width="2"/>
<path d="M-579.399 463.773C-579.399 466.732 -578.224 469.569 -576.131 471.661C-574.039 473.754 -571.202 474.929 -568.243 474.929C-565.284 474.929 -562.446 473.754 -560.354 471.661C-558.262 469.569 -557.087 466.732 -557.087 463.773C-557.087 460.814 -558.262 457.976 -560.354 455.884C-562.446 453.792 -565.284 452.616 -568.243 452.616C-571.202 452.616 -574.039 453.792 -576.131 455.884C-578.224 457.976 -579.399 460.814 -579.399 463.773ZM-482.771 519.554C-482.771 522.513 -481.596 525.35 -479.503 527.443C-477.411 529.535 -474.574 530.71 -471.615 530.71C-468.656 530.71 -465.818 529.535 -463.726 527.443C-461.634 525.35 -460.459 522.513 -460.459 519.554C-460.459 516.595 -461.634 513.757 -463.726 511.665C-465.818 509.573 -468.656 508.398 -471.615 508.398C-474.574 508.398 -477.411 509.573 -479.503 511.665C-481.596 513.757 -482.771 516.595 -482.771 519.554ZM-482.771 631.116C-482.771 634.075 -481.596 636.913 -479.503 639.005C-477.411 641.097 -474.574 642.273 -471.615 642.273C-468.656 642.273 -465.818 641.097 -463.726 639.005C-461.634 636.913 -460.459 634.075 -460.459 631.116C-460.459 628.158 -461.634 625.32 -463.726 623.228C-465.818 621.136 -468.656 619.96 -471.615 619.96C-474.574 619.96 -477.411 621.136 -479.503 623.228C-481.596 625.32 -482.771 628.158 -482.771 631.116ZM-579.399 686.898C-579.399 689.857 -578.224 692.694 -576.131 694.786C-574.039 696.879 -571.202 698.054 -568.243 698.054C-565.284 698.054 -562.446 696.879 -560.354 694.786C-558.262 692.694 -557.087 689.857 -557.087 686.898C-557.087 683.939 -558.262 681.101 -560.354 679.009C-562.446 676.917 -565.284 675.741 -568.243 675.741C-571.202 675.741 -574.039 676.917 -576.131 679.009C-578.224 681.101 -579.399 683.939 -579.399 686.898ZM-676.012 631.116C-676.012 634.075 -674.837 636.913 -672.745 639.005C-670.652 641.097 -667.815 642.273 -664.856 642.273C-661.897 642.273 -659.059 641.097 -656.967 639.005C-654.875 636.913 -653.7 634.075 -653.7 631.116C-653.7 628.158 -654.875 625.32 -656.967 623.228C-659.059 621.136 -661.897 619.96 -664.856 619.96C-667.815 619.96 -670.652 621.136 -672.745 623.228C-674.837 625.32 -676.012 628.158 -676.012 631.116ZM-676.012 519.554C-676.012 522.513 -674.837 525.35 -672.745 527.443C-670.652 529.535 -667.815 530.71 -664.856 530.71C-661.897 530.71 -659.059 529.535 -656.967 527.443C-654.875 525.35 -653.7 522.513 -653.7 519.554C-653.7 516.595 -654.875 513.757 -656.967 511.665C-659.059 509.573 -661.897 508.398 -664.856 508.398C-667.815 508.398 -670.652 509.573 -672.745 511.665C-674.837 513.757 -676.012 516.595 -676.012 519.554ZM-386.158 129.085C-386.158 132.044 -384.983 134.882 -382.89 136.974C-380.798 139.066 -377.96 140.241 -375.002 140.241C-372.043 140.241 -369.205 139.066 -367.113 136.974C-365.021 134.882 -363.845 132.044 -363.845 129.085C-363.845 126.126 -365.021 123.289 -367.113 121.197C-369.205 119.104 -372.043 117.929 -375.002 117.929C-377.96 117.929 -380.798 119.104 -382.89 121.197C-384.983 123.289 -386.158 126.126 -386.158 129.085ZM-289.53 184.866C-289.53 187.825 -288.355 190.663 -286.262 192.755C-284.17 194.847 -281.332 196.023 -278.374 196.023C-275.415 196.023 -272.577 194.847 -270.485 192.755C-268.393 190.663 -267.217 187.825 -267.217 184.866C-267.217 181.908 -268.393 179.07 -270.485 176.978C-272.577 174.886 -275.415 173.71 -278.374 173.71C-281.332 173.71 -284.17 174.886 -286.262 176.978C-288.355 179.07 -289.53 181.908 -289.53 184.866ZM-289.53 296.429C-289.53 299.388 -288.355 302.225 -286.262 304.318C-284.17 306.41 -281.332 307.585 -278.374 307.585C-275.415 307.585 -272.577 306.41 -270.485 304.318C-268.393 302.225 -267.217 299.388 -267.217 296.429C-267.217 293.47 -268.393 290.633 -270.485 288.54C-272.577 286.448 -275.415 285.273 -278.374 285.273C-281.332 285.273 -284.17 286.448 -286.262 288.54C-288.355 290.633 -289.53 293.47 -289.53 296.429ZM-386.158 352.21C-386.158 355.169 -384.983 358.007 -382.89 360.099C-380.798 362.191 -377.96 363.366 -375.002 363.366C-372.043 363.366 -369.205 362.191 -367.113 360.099C-365.021 358.007 -363.845 355.169 -363.845 352.21C-363.845 349.251 -365.021 346.414 -367.113 344.322C-369.205 342.229 -372.043 341.054 -375.002 341.054C-377.96 341.054 -380.798 342.229 -382.89 344.322C-384.983 346.414 -386.158 349.251 -386.158 352.21ZM-482.771 296.429C-482.771 299.388 -481.596 302.225 -479.503 304.318C-477.411 306.41 -474.574 307.585 -471.615 307.585C-468.656 307.585 -465.818 306.41 -463.726 304.318C-461.634 302.225 -460.459 299.388 -460.459 296.429C-460.459 293.47 -461.634 290.633 -463.726 288.54C-465.818 286.448 -468.656 285.273 -471.615 285.273C-474.574 285.273 -477.411 286.448 -479.503 288.54C-481.596 290.633 -482.771 293.47 -482.771 296.429ZM-482.771 184.866C-482.771 187.825 -481.596 190.663 -479.503 192.755C-477.411 194.847 -474.574 196.023 -471.615 196.023C-468.656 196.023 -465.818 194.847 -463.726 192.755C-461.634 190.663 -460.459 187.825 -460.459 184.866C-460.459 181.908 -461.634 179.07 -463.726 176.978C-465.818 174.886 -468.656 173.71 -471.615 173.71C-474.574 173.71 -477.411 174.886 -479.503 176.978C-481.596 179.07 -482.771 181.908 -482.771 184.866ZM-386.158 463.773C-386.158 466.732 -384.983 469.569 -382.89 471.661C-380.798 473.754 -377.96 474.929 -375.002 474.929C-372.043 474.929 -369.205 473.754 -367.113 471.661C-365.021 469.569 -363.845 466.732 -363.845 463.773C-363.845 460.814 -365.021 457.976 -367.113 455.884C-369.205 453.792 -372.043 452.616 -375.002 452.616C-377.96 452.616 -380.798 453.792 -382.89 455.884C-384.983 457.976 -386.158 460.814 -386.158 463.773ZM-579.399 352.21C-579.399 355.169 -578.224 358.007 -576.131 360.099C-574.039 362.191 -571.202 363.366 -568.243 363.366C-565.284 363.366 -562.446 362.191 -560.354 360.099C-558.262 358.007 -557.087 355.169 -557.087 352.21C-557.087 349.251 -558.262 346.414 -560.354 344.322C-562.446 342.229 -565.284 341.054 -568.243 341.054C-571.202 341.054 -574.039 342.229 -576.131 344.322C-578.224 346.414 -579.399 349.251 -579.399 352.21ZM-386.158 686.898C-386.158 689.857 -384.983 692.694 -382.89 694.786C-380.798 696.879 -377.96 698.054 -375.002 698.054C-372.043 698.054 -369.205 696.879 -367.113 694.786C-365.021 692.694 -363.845 689.857 -363.845 686.898C-363.845 683.939 -365.021 681.101 -367.113 679.009C-369.205 676.917 -372.043 675.741 -375.002 675.741C-377.96 675.741 -380.798 676.917 -382.89 679.009C-384.983 681.101 -386.158 683.939 -386.158 686.898ZM-386.158 798.46C-386.158 801.419 -384.983 804.257 -382.89 806.349C-380.798 808.441 -377.96 809.616 -375.002 809.616C-372.043 809.616 -369.205 808.441 -367.113 806.349C-365.021 804.257 -363.845 801.419 -363.845 798.46C-363.845 795.501 -365.021 792.664 -367.113 790.571C-369.205 788.479 -372.043 787.304 -375.002 787.304C-377.96 787.304 -380.798 788.479 -382.89 790.571C-384.983 792.664 -386.158 795.501 -386.158 798.46ZM-482.771 854.241C-482.771 857.2 -481.596 860.038 -479.503 862.13C-477.411 864.222 -474.574 865.398 -471.615 865.398C-468.656 865.398 -465.818 864.222 -463.726 862.13C-461.634 860.038 -460.459 857.2 -460.459 854.241C-460.459 851.283 -461.634 848.445 -463.726 846.353C-465.818 844.261 -468.656 843.085 -471.615 843.085C-474.574 843.085 -477.411 844.261 -479.503 846.353C-481.596 848.445 -482.771 851.283 -482.771 854.241ZM-579.399 798.46C-579.399 801.419 -578.224 804.257 -576.131 806.349C-574.039 808.441 -571.202 809.616 -568.243 809.616C-565.284 809.616 -562.446 808.441 -560.354 806.349C-558.262 804.257 -557.087 801.419 -557.087 798.46C-557.087 795.501 -558.262 792.664 -560.354 790.571C-562.446 788.479 -565.284 787.304 -568.243 787.304C-571.202 787.304 -574.039 788.479 -576.131 790.571C-578.224 792.664 -579.399 795.501 -579.399 798.46ZM-192.917 352.21C-192.917 355.169 -191.741 358.007 -189.649 360.099C-187.557 362.191 -184.719 363.366 -181.761 363.366C-178.802 363.366 -175.964 362.191 -173.872 360.099C-171.78 358.007 -170.604 355.169 -170.604 352.21C-170.604 349.251 -171.78 346.414 -173.872 344.322C-175.964 342.229 -178.802 341.054 -181.761 341.054C-184.719 341.054 -187.557 342.229 -189.649 344.322C-191.741 346.414 -192.917 349.251 -192.917 352.21ZM-192.917 463.773C-192.917 466.732 -191.741 469.569 -189.649 471.661C-187.557 473.754 -184.719 474.929 -181.761 474.929C-178.802 474.929 -175.964 473.754 -173.872 471.661C-171.78 469.569 -170.604 466.732 -170.604 463.773C-170.604 460.814 -171.78 457.976 -173.872 455.884C-175.964 453.792 -178.802 452.616 -181.761 452.616C-184.719 452.616 -187.557 453.792 -189.649 455.884C-191.741 457.976 -192.917 460.814 -192.917 463.773ZM-289.53 519.554C-289.53 522.513 -288.355 525.35 -286.262 527.443C-284.17 529.535 -281.332 530.71 -278.374 530.71C-275.415 530.71 -272.577 529.535 -270.485 527.443C-268.393 525.35 -267.217 522.513 -267.217 519.554C-267.217 516.595 -268.393 513.757 -270.485 511.665C-272.577 509.573 -275.415 508.398 -278.374 508.398C-281.332 508.398 -284.17 509.573 -286.262 511.665C-288.355 513.757 -289.53 516.595 -289.53 519.554ZM-289.53 631.116C-289.53 634.075 -288.355 636.913 -286.262 639.005C-284.17 641.097 -281.332 642.273 -278.374 642.273C-275.415 642.273 -272.577 641.097 -270.485 639.005C-268.393 636.913 -267.217 634.075 -267.217 631.116C-267.217 628.158 -268.393 625.32 -270.485 623.228C-272.577 621.136 -275.415 619.96 -278.374 619.96C-281.332 619.96 -284.17 621.136 -286.262 623.228C-288.355 625.32 -289.53 628.158 -289.53 631.116ZM-192.917 686.898C-192.917 689.857 -191.741 692.694 -189.649 694.786C-187.557 696.879 -184.719 698.054 -181.761 698.054C-178.802 698.054 -175.964 696.879 -173.872 694.786C-171.78 692.694 -170.604 689.857 -170.604 686.898C-170.604 683.939 -171.78 681.101 -173.872 679.009C-175.964 676.917 -178.802 675.741 -181.761 675.741C-184.719 675.741 -187.557 676.917 -189.649 679.009C-191.741 681.101 -192.917 683.939 -192.917 686.898ZM-192.917 798.46C-192.917 801.419 -191.741 804.257 -189.649 806.349C-187.557 808.441 -184.719 809.616 -181.761 809.616C-178.802 809.616 -175.964 808.441 -173.872 806.349C-171.78 804.257 -170.604 801.419 -170.604 798.46C-170.604 795.501 -171.78 792.664 -173.872 790.571C-175.964 788.479 -178.802 787.304 -181.761 787.304C-184.719 787.304 -187.557 788.479 -189.649 790.571C-191.741 792.664 -192.917 795.501 -192.917 798.46ZM-289.53 854.241C-289.53 857.2 -288.355 860.038 -286.262 862.13C-284.17 864.222 -281.332 865.398 -278.374 865.398C-275.415 865.398 -272.577 864.222 -270.485 862.13C-268.393 860.038 -267.217 857.2 -267.217 854.241C-267.217 851.283 -268.393 848.445 -270.485 846.353C-272.577 844.261 -275.415 843.085 -278.374 843.085C-281.332 843.085 -284.17 844.261 -286.262 846.353C-288.355 848.445 -289.53 851.283 -289.53 854.241ZM-96.3037 -38.2585C-96.3037 -35.2997 -95.1283 -32.4621 -93.036 -30.3699C-90.9438 -28.2776 -88.1062 -27.1023 -85.1474 -27.1023C-82.1886 -27.1023 -79.3509 -28.2776 -77.2587 -30.3699C-75.1665 -32.4621 -73.9912 -35.2997 -73.9912 -38.2585C-73.9912 -41.2173 -75.1665 -44.055 -77.2587 -46.1472C-79.3509 -48.2394 -82.1886 -49.4148 -85.1474 -49.4148C-88.1062 -49.4148 -90.9438 -48.2394 -93.036 -46.1472C-95.1283 -44.055 -96.3037 -41.2173 -96.3037 -38.2585ZM0.324321 17.5227C0.324321 20.4816 1.49973 23.3192 3.59194 25.4114C5.68414 27.5036 8.52175 28.679 11.4806 28.679C14.4394 28.679 17.277 27.5036 19.3693 25.4114C21.4615 23.3192 22.6368 20.4816 22.6368 17.5227C22.6368 14.5639 21.4615 11.7263 19.3693 9.63408C17.277 7.54187 14.4394 6.36648 11.4806 6.36648C8.52175 6.36648 5.68414 7.54187 3.59194 9.63408C1.49973 11.7263 0.324321 14.5639 0.324321 17.5227ZM0.324321 129.085C0.324321 132.044 1.49973 134.882 3.59194 136.974C5.68414 139.066 8.52175 140.241 11.4806 140.241C14.4394 140.241 17.277 139.066 19.3693 136.974C21.4615 134.882 22.6368 132.044 22.6368 129.085C22.6368 126.126 21.4615 123.289 19.3693 121.197C17.277 119.104 14.4394 117.929 11.4806 117.929C8.52175 117.929 5.68414 119.104 3.59194 121.197C1.49973 123.289 0.324321 126.126 0.324321 129.085ZM-96.3037 184.866C-96.3037 187.825 -95.1283 190.663 -93.036 192.755C-90.9438 194.847 -88.1062 196.023 -85.1474 196.023C-82.1886 196.023 -79.3509 194.847 -77.2587 192.755C-75.1665 190.663 -73.9912 187.825 -73.9912 184.866C-73.9912 181.908 -75.1665 179.07 -77.2587 176.978C-79.3509 174.886 -82.1886 173.71 -85.1474 173.71C-88.1062 173.71 -90.9438 174.886 -93.036 176.978C-95.1283 179.07 -96.3037 181.908 -96.3037 184.866ZM-192.917 129.085C-192.917 132.044 -191.741 134.882 -189.649 136.974C-187.557 139.066 -184.719 140.241 -181.761 140.241C-178.802 140.241 -175.964 139.066 -173.872 136.974C-171.78 134.882 -170.604 132.044 -170.604 129.085C-170.604 126.126 -171.78 123.289 -173.872 121.197C-175.964 119.104 -178.802 117.929 -181.761 117.929C-184.719 117.929 -187.557 119.104 -189.649 121.197C-191.741 123.289 -192.917 126.126 -192.917 129.085ZM-192.917 17.5227C-192.917 20.4816 -191.741 23.3192 -189.649 25.4114C-187.557 27.5036 -184.719 28.679 -181.761 28.679C-178.802 28.679 -175.964 27.5036 -173.872 25.4114C-171.78 23.3192 -170.604 20.4816 -170.604 17.5227C-170.604 14.5639 -171.78 11.7263 -173.872 9.63408C-175.964 7.54187 -178.802 6.36648 -181.761 6.36648C-184.719 6.36648 -187.557 7.54187 -189.649 9.63408C-191.741 11.7263 -192.917 14.5639 -192.917 17.5227ZM0.324321 798.46C0.324321 801.419 1.49973 804.257 3.59194 806.349C5.68414 808.441 8.52175 809.616 11.4806 809.616C14.4394 809.616 17.277 808.441 19.3693 806.349C21.4615 804.257 22.6368 801.419 22.6368 798.46C22.6368 795.501 21.4615 792.664 19.3693 790.571C17.277 788.479 14.4394 787.304 11.4806 787.304C8.52175 787.304 5.68414 788.479 3.59194 790.571C1.49973 792.664 0.324321 795.501 0.324321 798.46ZM96.9375 854.241C96.9375 857.2 98.1129 860.038 100.205 862.13C102.297 864.222 105.135 865.398 108.094 865.398C111.053 865.398 113.89 864.222 115.982 862.13C118.075 860.038 119.25 857.2 119.25 854.241C119.25 851.283 118.075 848.445 115.982 846.353C113.89 844.261 111.053 843.085 108.094 843.085C105.135 843.085 102.297 844.261 100.205 846.353C98.1129 848.445 96.9375 851.283 96.9375 854.241ZM96.9375 965.804C96.9375 968.763 98.1129 971.6 100.205 973.693C102.297 975.785 105.135 976.96 108.094 976.96C111.053 976.96 113.89 975.785 115.982 973.693C118.075 971.6 119.25 968.763 119.25 965.804C119.25 962.845 118.075 960.007 115.982 957.915C113.89 955.823 111.053 954.648 108.094 954.648C105.135 954.648 102.297 955.823 100.205 957.915C98.1129 960.007 96.9375 962.845 96.9375 965.804ZM0.324321 1021.59C0.324321 1024.54 1.49973 1027.38 3.59194 1029.47C5.68414 1031.57 8.52175 1032.74 11.4806 1032.74C14.4394 1032.74 17.277 1031.57 19.3693 1029.47C21.4615 1027.38 22.6368 1024.54 22.6368 1021.59C22.6368 1018.63 21.4615 1015.79 19.3693 1013.7C17.277 1011.6 14.4394 1010.43 11.4806 1010.43C8.52175 1010.43 5.68414 1011.6 3.59194 1013.7C1.49973 1015.79 0.324321 1018.63 0.324321 1021.59ZM-96.3037 965.804C-96.3037 968.763 -95.1283 971.6 -93.036 973.693C-90.9438 975.785 -88.1062 976.96 -85.1474 976.96C-82.1886 976.96 -79.3509 975.785 -77.2587 973.693C-75.1665 971.6 -73.9912 968.763 -73.9912 965.804C-73.9912 962.845 -75.1665 960.007 -77.2587 957.915C-79.3509 955.823 -82.1886 954.648 -85.1474 954.648C-88.1062 954.648 -90.9438 955.823 -93.036 957.915C-95.1283 960.007 -96.3037 962.845 -96.3037 965.804ZM-96.3037 854.241C-96.3037 857.2 -95.1283 860.038 -93.036 862.13C-90.9438 864.222 -88.1062 865.398 -85.1474 865.398C-82.1886 865.398 -79.3509 864.222 -77.2587 862.13C-75.1665 860.038 -73.9912 857.2 -73.9912 854.241C-73.9912 851.283 -75.1665 848.445 -77.2587 846.353C-79.3509 844.261 -82.1886 843.085 -85.1474 843.085C-88.1062 843.085 -90.9438 844.261 -93.036 846.353C-95.1283 848.445 -96.3037 851.283 -96.3037 854.241ZM193.551 129.085C193.551 132.044 194.726 134.882 196.818 136.974C198.91 139.066 201.748 140.241 204.707 140.241C207.666 140.241 210.503 139.066 212.595 136.974C214.688 134.882 215.863 132.044 215.863 129.085C215.863 126.126 214.688 123.289 212.595 121.197C210.503 119.104 207.666 117.929 204.707 117.929C201.748 117.929 198.91 119.104 196.818 121.197C194.726 123.289 193.551 126.126 193.551 129.085ZM290.179 184.866C290.179 187.825 291.354 190.663 293.446 192.755C295.538 194.847 298.376 196.023 301.335 196.023C304.294 196.023 307.131 194.847 309.224 192.755C311.316 190.663 312.491 187.825 312.491 184.866C312.491 181.908 311.316 179.07 309.224 176.978C307.131 174.886 304.294 173.71 301.335 173.71C298.376 173.71 295.538 174.886 293.446 176.978C291.354 179.07 290.179 181.908 290.179 184.866ZM290.179 296.429C290.179 299.388 291.354 302.225 293.446 304.318C295.538 306.41 298.376 307.585 301.335 307.585C304.294 307.585 307.131 306.41 309.224 304.318C311.316 302.225 312.491 299.388 312.491 296.429C312.491 293.47 311.316 290.633 309.224 288.54C307.131 286.448 304.294 285.273 301.335 285.273C298.376 285.273 295.538 286.448 293.446 288.54C291.354 290.633 290.179 293.47 290.179 296.429ZM193.551 352.21C193.551 355.169 194.726 358.007 196.818 360.099C198.91 362.191 201.748 363.366 204.707 363.366C207.666 363.366 210.503 362.191 212.595 360.099C214.688 358.007 215.863 355.169 215.863 352.21C215.863 349.251 214.688 346.414 212.595 344.322C210.503 342.229 207.666 341.054 204.707 341.054C201.748 341.054 198.91 342.229 196.818 344.322C194.726 346.414 193.551 349.251 193.551 352.21ZM96.9375 296.429C96.9375 299.388 98.1129 302.225 100.205 304.318C102.297 306.41 105.135 307.585 108.094 307.585C111.053 307.585 113.89 306.41 115.982 304.318C118.075 302.225 119.25 299.388 119.25 296.429C119.25 293.47 118.075 290.633 115.982 288.54C113.89 286.448 111.053 285.273 108.094 285.273C105.135 285.273 102.297 286.448 100.205 288.54C98.1129 290.633 96.9375 293.47 96.9375 296.429ZM96.9375 184.866C96.9375 187.825 98.1129 190.663 100.205 192.755C102.297 194.847 105.135 196.023 108.094 196.023C111.053 196.023 113.89 194.847 115.982 192.755C118.075 190.663 119.25 187.825 119.25 184.866C119.25 181.908 118.075 179.07 115.982 176.978C113.89 174.886 111.053 173.71 108.094 173.71C105.135 173.71 102.297 174.886 100.205 176.978C98.1129 179.07 96.9375 181.908 96.9375 184.866ZM96.9375 631.116C96.9375 634.075 98.1129 636.913 100.205 639.005C102.297 641.097 105.135 642.273 108.094 642.273C111.053 642.273 113.89 641.097 115.982 639.005C118.075 636.913 119.25 634.075 119.25 631.116C119.25 628.158 118.075 625.32 115.982 623.228C113.89 621.136 111.053 619.96 108.094 619.96C105.135 619.96 102.297 621.136 100.205 623.228C98.1129 625.32 96.9375 628.158 96.9375 631.116ZM193.551 686.898C193.551 689.857 194.726 692.694 196.818 694.786C198.91 696.879 201.748 698.054 204.707 698.054C207.666 698.054 210.503 696.879 212.595 694.786C214.688 692.694 215.863 689.857 215.863 686.898C215.863 683.939 214.688 681.101 212.595 679.009C210.503 676.917 207.666 675.741 204.707 675.741C201.748 675.741 198.91 676.917 196.818 679.009C194.726 681.101 193.551 683.939 193.551 686.898ZM193.551 798.46C193.551 801.419 194.726 804.257 196.818 806.349C198.91 808.441 201.748 809.616 204.707 809.616C207.666 809.616 210.503 808.441 212.595 806.349C214.688 804.257 215.863 801.419 215.863 798.46C215.863 795.501 214.688 792.664 212.595 790.571C210.503 788.479 207.666 787.304 204.707 787.304C201.748 787.304 198.91 788.479 196.818 790.571C194.726 792.664 193.551 795.501 193.551 798.46ZM0.324321 686.898C0.324321 689.857 1.49973 692.694 3.59194 694.786C5.68414 696.879 8.52175 698.054 11.4806 698.054C14.4394 698.054 17.277 696.879 19.3693 694.786C21.4615 692.694 22.6368 689.857 22.6368 686.898C22.6368 683.939 21.4615 681.101 19.3693 679.009C17.277 676.917 14.4394 675.741 11.4806 675.741C8.52175 675.741 5.68414 676.917 3.59194 679.009C1.49973 681.101 0.324321 683.939 0.324321 686.898ZM290.179 854.241C290.179 857.2 291.354 860.038 293.446 862.13C295.538 864.222 298.376 865.398 301.335 865.398C304.294 865.398 307.131 864.222 309.224 862.13C311.316 860.038 312.491 857.2 312.491 854.241C312.491 851.283 311.316 848.445 309.224 846.353C307.131 844.261 304.294 843.085 301.335 843.085C298.376 843.085 295.538 844.261 293.446 846.353C291.354 848.445 290.179 851.283 290.179 854.241ZM290.179 965.804C290.179 968.763 291.354 971.6 293.446 973.693C295.538 975.785 298.376 976.96 301.335 976.96C304.294 976.96 307.131 975.785 309.224 973.693C311.316 971.6 312.491 968.763 312.491 965.804C312.491 962.845 311.316 960.007 309.224 957.915C307.131 955.823 304.294 954.648 301.335 954.648C298.376 954.648 295.538 955.823 293.446 957.915C291.354 960.007 290.179 962.845 290.179 965.804ZM193.551 1021.59C193.551 1024.54 194.726 1027.38 196.818 1029.47C198.91 1031.57 201.748 1032.74 204.707 1032.74C207.666 1032.74 210.503 1031.57 212.595 1029.47C214.688 1027.38 215.863 1024.54 215.863 1021.59C215.863 1018.63 214.688 1015.79 212.595 1013.7C210.503 1011.6 207.666 1010.43 204.707 1010.43C201.748 1010.43 198.91 1011.6 196.818 1013.7C194.726 1015.79 193.551 1018.63 193.551 1021.59ZM386.792 129.085C386.792 132.044 387.967 134.882 390.059 136.974C392.151 139.066 394.989 140.241 397.948 140.241C400.907 140.241 403.744 139.066 405.837 136.974C407.929 134.882 409.104 132.044 409.104 129.085C409.104 126.126 407.929 123.289 405.837 121.197C403.744 119.104 400.907 117.929 397.948 117.929C394.989 117.929 392.151 119.104 390.059 121.197C387.967 123.289 386.792 126.126 386.792 129.085ZM483.42 184.866C483.42 187.825 484.595 190.663 486.687 192.755C488.78 194.847 491.617 196.023 494.576 196.023C497.535 196.023 500.372 194.847 502.465 192.755C504.557 190.663 505.732 187.825 505.732 184.866C505.732 181.908 504.557 179.07 502.465 176.978C500.372 174.886 497.535 173.71 494.576 173.71C491.617 173.71 488.78 174.886 486.687 176.978C484.595 179.07 483.42 181.908 483.42 184.866ZM483.42 296.429C483.42 299.388 484.595 302.225 486.687 304.318C488.78 306.41 491.617 307.585 494.576 307.585C497.535 307.585 500.372 306.41 502.465 304.318C504.557 302.225 505.732 299.388 505.732 296.429C505.732 293.47 504.557 290.633 502.465 288.54C500.372 286.448 497.535 285.273 494.576 285.273C491.617 285.273 488.78 286.448 486.687 288.54C484.595 290.633 483.42 293.47 483.42 296.429ZM386.792 352.21C386.792 355.169 387.967 358.007 390.059 360.099C392.151 362.191 394.989 363.366 397.948 363.366C400.907 363.366 403.744 362.191 405.837 360.099C407.929 358.007 409.104 355.169 409.104 352.21C409.104 349.251 407.929 346.414 405.837 344.322C403.744 342.229 400.907 341.054 397.948 341.054C394.989 341.054 392.151 342.229 390.059 344.322C387.967 346.414 386.792 349.251 386.792 352.21ZM773.274 463.773C773.274 466.732 774.449 469.569 776.542 471.661C778.634 473.754 781.471 474.929 784.43 474.929C787.389 474.929 790.227 473.754 792.319 471.661C794.411 469.569 795.586 466.732 795.586 463.773C795.586 460.814 794.411 457.976 792.319 455.884C790.227 453.792 787.389 452.616 784.43 452.616C781.471 452.616 778.634 453.792 776.542 455.884C774.449 457.976 773.274 460.814 773.274 463.773ZM869.887 519.554C869.887 522.513 871.062 525.35 873.155 527.443C875.247 529.535 878.084 530.71 881.043 530.71C884.002 530.71 886.84 529.535 888.932 527.443C891.024 525.35 892.2 522.513 892.2 519.554C892.2 516.595 891.024 513.757 888.932 511.665C886.84 509.573 884.002 508.398 881.043 508.398C878.084 508.398 875.247 509.573 873.155 511.665C871.062 513.757 869.887 516.595 869.887 519.554ZM869.887 631.116C869.887 634.075 871.062 636.913 873.155 639.005C875.247 641.097 878.084 642.273 881.043 642.273C884.002 642.273 886.84 641.097 888.932 639.005C891.024 636.913 892.2 634.075 892.2 631.116C892.2 628.158 891.024 625.32 888.932 623.228C886.84 621.136 884.002 619.96 881.043 619.96C878.084 619.96 875.247 621.136 873.155 623.228C871.062 625.32 869.887 628.158 869.887 631.116ZM773.274 686.898C773.274 689.857 774.449 692.694 776.542 694.786C778.634 696.879 781.471 698.054 784.43 698.054C787.389 698.054 790.227 696.879 792.319 694.786C794.411 692.694 795.586 689.857 795.586 686.898C795.586 683.939 794.411 681.101 792.319 679.009C790.227 676.917 787.389 675.741 784.43 675.741C781.471 675.741 778.634 676.917 776.542 679.009C774.449 681.101 773.274 683.939 773.274 686.898ZM676.646 631.116C676.646 634.075 677.821 636.913 679.914 639.005C682.006 641.097 684.843 642.273 687.802 642.273C690.761 642.273 693.599 641.097 695.691 639.005C697.783 636.913 698.958 634.075 698.958 631.116C698.958 628.158 697.783 625.32 695.691 623.228C693.599 621.136 690.761 619.96 687.802 619.96C684.843 619.96 682.006 621.136 679.914 623.228C677.821 625.32 676.646 628.158 676.646 631.116ZM676.646 519.554C676.646 522.513 677.821 525.35 679.914 527.443C682.006 529.535 684.843 530.71 687.802 530.71C690.761 530.71 693.599 529.535 695.691 527.443C697.783 525.35 698.958 522.513 698.958 519.554C698.958 516.595 697.783 513.757 695.691 511.665C693.599 509.573 690.761 508.398 687.802 508.398C684.843 508.398 682.006 509.573 679.914 511.665C677.821 513.757 676.646 516.595 676.646 519.554ZM869.887 -38.2585C869.887 -35.2997 871.062 -32.4621 873.155 -30.3699C875.247 -28.2776 878.084 -27.1023 881.043 -27.1023C884.002 -27.1023 886.84 -28.2776 888.932 -30.3699C891.024 -32.4621 892.2 -35.2997 892.2 -38.2585C892.2 -41.2173 891.024 -44.055 888.932 -46.1472C886.84 -48.2394 884.002 -49.4148 881.043 -49.4148C878.084 -49.4148 875.247 -48.2394 873.155 -46.1472C871.062 -44.055 869.887 -41.2173 869.887 -38.2585ZM966.5 17.5227C966.5 20.4816 967.676 23.3192 969.768 25.4114C971.86 27.5036 974.698 28.679 977.656 28.679C980.615 28.679 983.453 27.5036 985.545 25.4114C987.637 23.3192 988.813 20.4816 988.813 17.5227C988.813 14.5639 987.637 11.7263 985.545 9.63408C983.453 7.54187 980.615 6.36648 977.656 6.36648C974.698 6.36648 971.86 7.54187 969.768 9.63408C967.676 11.7263 966.5 14.5639 966.5 17.5227ZM966.5 129.085C966.5 132.044 967.676 134.882 969.768 136.974C971.86 139.066 974.698 140.241 977.656 140.241C980.615 140.241 983.453 139.066 985.545 136.974C987.637 134.882 988.813 132.044 988.813 129.085C988.813 126.126 987.637 123.289 985.545 121.197C983.453 119.104 980.615 117.929 977.656 117.929C974.698 117.929 971.86 119.104 969.768 121.197C967.676 123.289 966.5 126.126 966.5 129.085ZM869.887 184.866C869.887 187.825 871.062 190.663 873.155 192.755C875.247 194.847 878.084 196.023 881.043 196.023C884.002 196.023 886.84 194.847 888.932 192.755C891.024 190.663 892.2 187.825 892.2 184.866C892.2 181.908 891.024 179.07 888.932 176.978C886.84 174.886 884.002 173.71 881.043 173.71C878.084 173.71 875.247 174.886 873.155 176.978C871.062 179.07 869.887 181.908 869.887 184.866ZM773.274 129.085C773.274 132.044 774.449 134.882 776.542 136.974C778.634 139.066 781.471 140.241 784.43 140.241C787.389 140.241 790.227 139.066 792.319 136.974C794.411 134.882 795.586 132.044 795.586 129.085C795.586 126.126 794.411 123.289 792.319 121.197C790.227 119.104 787.389 117.929 784.43 117.929C781.471 117.929 778.634 119.104 776.542 121.197C774.449 123.289 773.274 126.126 773.274 129.085ZM773.274 17.5227C773.274 20.4816 774.449 23.3192 776.542 25.4114C778.634 27.5036 781.471 28.679 784.43 28.679C787.389 28.679 790.227 27.5036 792.319 25.4114C794.411 23.3192 795.586 20.4816 795.586 17.5227C795.586 14.5639 794.411 11.7263 792.319 9.63408C790.227 7.54187 787.389 6.36648 784.43 6.36648C781.471 6.36648 778.634 7.54187 776.542 9.63408C774.449 11.7263 773.274 14.5639 773.274 17.5227ZM1063.13 184.866C1063.13 187.825 1064.3 190.663 1066.4 192.755C1068.49 194.847 1071.33 196.023 1074.28 196.023C1077.24 196.023 1080.08 194.847 1082.17 192.755C1084.27 190.663 1085.44 187.825 1085.44 184.866C1085.44 181.908 1084.27 179.07 1082.17 176.978C1080.08 174.886 1077.24 173.71 1074.28 173.71C1071.33 173.71 1068.49 174.886 1066.4 176.978C1064.3 179.07 1063.13 181.908 1063.13 184.866ZM1063.13 296.429C1063.13 299.388 1064.3 302.225 1066.4 304.318C1068.49 306.41 1071.33 307.585 1074.28 307.585C1077.24 307.585 1080.08 306.41 1082.17 304.318C1084.27 302.225 1085.44 299.388 1085.44 296.429C1085.44 293.47 1084.27 290.633 1082.17 288.54C1080.08 286.448 1077.24 285.273 1074.28 285.273C1071.33 285.273 1068.49 286.448 1066.4 288.54C1064.3 290.633 1063.13 293.47 1063.13 296.429ZM966.5 352.21C966.5 355.169 967.676 358.007 969.768 360.099C971.86 362.191 974.698 363.366 977.656 363.366C980.615 363.366 983.453 362.191 985.545 360.099C987.637 358.007 988.813 355.169 988.813 352.21C988.813 349.251 987.637 346.414 985.545 344.322C983.453 342.229 980.615 341.054 977.656 341.054C974.698 341.054 971.86 342.229 969.768 344.322C967.676 346.414 966.5 349.251 966.5 352.21ZM869.887 296.429C869.887 299.388 871.062 302.225 873.155 304.318C875.247 306.41 878.084 307.585 881.043 307.585C884.002 307.585 886.84 306.41 888.932 304.318C891.024 302.225 892.2 299.388 892.2 296.429C892.2 293.47 891.024 290.633 888.932 288.54C886.84 286.448 884.002 285.273 881.043 285.273C878.084 285.273 875.247 286.448 873.155 288.54C871.062 290.633 869.887 293.47 869.887 296.429ZM1159.74 129.085C1159.74 132.044 1160.92 134.882 1163.01 136.974C1165.1 139.066 1167.94 140.241 1170.9 140.241C1173.86 140.241 1176.69 139.066 1178.79 136.974C1180.88 134.882 1182.05 132.044 1182.05 129.085C1182.05 126.126 1180.88 123.289 1178.79 121.197C1176.69 119.104 1173.86 117.929 1170.9 117.929C1167.94 117.929 1165.1 119.104 1163.01 121.197C1160.92 123.289 1159.74 126.126 1159.74 129.085ZM1256.35 184.866C1256.35 187.825 1257.53 190.663 1259.62 192.755C1261.71 194.847 1264.55 196.023 1267.51 196.023C1270.47 196.023 1273.31 194.847 1275.4 192.755C1277.49 190.663 1278.67 187.825 1278.67 184.866C1278.67 181.908 1277.49 179.07 1275.4 176.978C1273.31 174.886 1270.47 173.71 1267.51 173.71C1264.55 173.71 1261.71 174.886 1259.62 176.978C1257.53 179.07 1256.35 181.908 1256.35 184.866ZM1256.35 296.429C1256.35 299.388 1257.53 302.225 1259.62 304.318C1261.71 306.41 1264.55 307.585 1267.51 307.585C1270.47 307.585 1273.31 306.41 1275.4 304.318C1277.49 302.225 1278.67 299.388 1278.67 296.429C1278.67 293.47 1277.49 290.633 1275.4 288.54C1273.31 286.448 1270.47 285.273 1267.51 285.273C1264.55 285.273 1261.71 286.448 1259.62 288.54C1257.53 290.633 1256.35 293.47 1256.35 296.429ZM1159.74 352.21C1159.74 355.169 1160.92 358.007 1163.01 360.099C1165.1 362.191 1167.94 363.366 1170.9 363.366C1173.86 363.366 1176.69 362.191 1178.79 360.099C1180.88 358.007 1182.05 355.169 1182.05 352.21C1182.05 349.251 1180.88 346.414 1178.79 344.322C1176.69 342.229 1173.86 341.054 1170.9 341.054C1167.94 341.054 1165.1 342.229 1163.01 344.322C1160.92 346.414 1159.74 349.251 1159.74 352.21ZM1063.13 631.116C1063.13 634.075 1064.3 636.913 1066.4 639.005C1068.49 641.097 1071.33 642.273 1074.28 642.273C1077.24 642.273 1080.08 641.097 1082.17 639.005C1084.27 636.913 1085.44 634.075 1085.44 631.116C1085.44 628.158 1084.27 625.32 1082.17 623.228C1080.08 621.136 1077.24 619.96 1074.28 619.96C1071.33 619.96 1068.49 621.136 1066.4 623.228C1064.3 625.32 1063.13 628.158 1063.13 631.116ZM1159.74 686.898C1159.74 689.857 1160.92 692.694 1163.01 694.786C1165.1 696.879 1167.94 698.054 1170.9 698.054C1173.86 698.054 1176.69 696.879 1178.79 694.786C1180.88 692.694 1182.05 689.857 1182.05 686.898C1182.05 683.939 1180.88 681.101 1178.79 679.009C1176.69 676.917 1173.86 675.741 1170.9 675.741C1167.94 675.741 1165.1 676.917 1163.01 679.009C1160.92 681.101 1159.74 683.939 1159.74 686.898ZM1159.74 798.46C1159.74 801.419 1160.92 804.257 1163.01 806.349C1165.1 808.441 1167.94 809.616 1170.9 809.616C1173.86 809.616 1176.69 808.441 1178.79 806.349C1180.88 804.257 1182.05 801.419 1182.05 798.46C1182.05 795.501 1180.88 792.664 1178.79 790.571C1176.69 788.479 1173.86 787.304 1170.9 787.304C1167.94 787.304 1165.1 788.479 1163.01 790.571C1160.92 792.664 1159.74 795.501 1159.74 798.46ZM1063.13 854.241C1063.13 857.2 1064.3 860.038 1066.4 862.13C1068.49 864.222 1071.33 865.398 1074.28 865.398C1077.24 865.398 1080.08 864.222 1082.17 862.13C1084.27 860.038 1085.44 857.2 1085.44 854.241C1085.44 851.283 1084.27 848.445 1082.17 846.353C1080.08 844.261 1077.24 843.085 1074.28 843.085C1071.33 843.085 1068.49 844.261 1066.4 846.353C1064.3 848.445 1063.13 851.283 1063.13 854.241ZM966.5 798.46C966.5 801.419 967.676 804.257 969.768 806.349C971.86 808.441 974.698 809.616 977.656 809.616C980.615 809.616 983.453 808.441 985.545 806.349C987.637 804.257 988.813 801.419 988.813 798.46C988.813 795.501 987.637 792.664 985.545 790.571C983.453 788.479 980.615 787.304 977.656 787.304C974.698 787.304 971.86 788.479 969.768 790.571C967.676 792.664 966.5 795.501 966.5 798.46ZM966.5 686.898C966.5 689.857 967.676 692.694 969.768 694.786C971.86 696.879 974.698 698.054 977.656 698.054C980.615 698.054 983.453 696.879 985.545 694.786C987.637 692.694 988.813 689.857 988.813 686.898C988.813 683.939 987.637 681.101 985.545 679.009C983.453 676.917 980.615 675.741 977.656 675.741C974.698 675.741 971.86 676.917 969.768 679.009C967.676 681.101 966.5 683.939 966.5 686.898ZM1352.98 129.085C1352.98 132.044 1354.16 134.882 1356.25 136.974C1358.34 139.066 1361.18 140.241 1364.14 140.241C1367.1 140.241 1369.94 139.066 1372.03 136.974C1374.12 134.882 1375.29 132.044 1375.29 129.085C1375.29 126.126 1374.12 123.289 1372.03 121.197C1369.94 119.104 1367.1 117.929 1364.14 117.929C1361.18 117.929 1358.34 119.104 1356.25 121.197C1354.16 123.289 1352.98 126.126 1352.98 129.085ZM1449.6 184.866C1449.6 187.825 1450.77 190.663 1452.86 192.755C1454.96 194.847 1457.79 196.023 1460.75 196.023C1463.71 196.023 1466.55 194.847 1468.64 192.755C1470.73 190.663 1471.91 187.825 1471.91 184.866C1471.91 181.908 1470.73 179.07 1468.64 176.978C1466.55 174.886 1463.71 173.71 1460.75 173.71C1457.79 173.71 1454.96 174.886 1452.86 176.978C1450.77 179.07 1449.6 181.908 1449.6 184.866ZM1449.6 296.429C1449.6 299.388 1450.77 302.225 1452.86 304.318C1454.96 306.41 1457.79 307.585 1460.75 307.585C1463.71 307.585 1466.55 306.41 1468.64 304.318C1470.73 302.225 1471.91 299.388 1471.91 296.429C1471.91 293.47 1470.73 290.633 1468.64 288.54C1466.55 286.448 1463.71 285.273 1460.75 285.273C1457.79 285.273 1454.96 286.448 1452.86 288.54C1450.77 290.633 1449.6 293.47 1449.6 296.429ZM1352.98 352.21C1352.98 355.169 1354.16 358.007 1356.25 360.099C1358.34 362.191 1361.18 363.366 1364.14 363.366C1367.1 363.366 1369.94 362.191 1372.03 360.099C1374.12 358.007 1375.29 355.169 1375.29 352.21C1375.29 349.251 1374.12 346.414 1372.03 344.322C1369.94 342.229 1367.1 341.054 1364.14 341.054C1361.18 341.054 1358.34 342.229 1356.25 344.322C1354.16 346.414 1352.98 349.251 1352.98 352.21ZM1352.98 463.773C1352.98 466.732 1354.16 469.569 1356.25 471.661C1358.34 473.754 1361.18 474.929 1364.14 474.929C1367.1 474.929 1369.94 473.754 1372.03 471.661C1374.12 469.569 1375.29 466.732 1375.29 463.773C1375.29 460.814 1374.12 457.976 1372.03 455.884C1369.94 453.792 1367.1 452.616 1364.14 452.616C1361.18 452.616 1358.34 453.792 1356.25 455.884C1354.16 457.976 1352.98 460.814 1352.98 463.773ZM1449.6 519.554C1449.6 522.513 1450.77 525.35 1452.86 527.443C1454.96 529.535 1457.79 530.71 1460.75 530.71C1463.71 530.71 1466.55 529.535 1468.64 527.443C1470.73 525.35 1471.91 522.513 1471.91 519.554C1471.91 516.595 1470.73 513.757 1468.64 511.665C1466.55 509.573 1463.71 508.398 1460.75 508.398C1457.79 508.398 1454.96 509.573 1452.86 511.665C1450.77 513.757 1449.6 516.595 1449.6 519.554ZM1449.6 631.116C1449.6 634.075 1450.77 636.913 1452.86 639.005C1454.96 641.097 1457.79 642.273 1460.75 642.273C1463.71 642.273 1466.55 641.097 1468.64 639.005C1470.73 636.913 1471.91 634.075 1471.91 631.116C1471.91 628.158 1470.73 625.32 1468.64 623.228C1466.55 621.136 1463.71 619.96 1460.75 619.96C1457.79 619.96 1454.96 621.136 1452.86 623.228C1450.77 625.32 1449.6 628.158 1449.6 631.116ZM1352.98 686.898C1352.98 689.857 1354.16 692.694 1356.25 694.786C1358.34 696.879 1361.18 698.054 1364.14 698.054C1367.1 698.054 1369.94 696.879 1372.03 694.786C1374.12 692.694 1375.29 689.857 1375.29 686.898C1375.29 683.939 1374.12 681.101 1372.03 679.009C1369.94 676.917 1367.1 675.741 1364.14 675.741C1361.18 675.741 1358.34 676.917 1356.25 679.009C1354.16 681.101 1352.98 683.939 1352.98 686.898ZM1256.35 631.116C1256.35 634.075 1257.53 636.913 1259.62 639.005C1261.71 641.097 1264.55 642.273 1267.51 642.273C1270.47 642.273 1273.31 641.097 1275.4 639.005C1277.49 636.913 1278.67 634.075 1278.67 631.116C1278.67 628.158 1277.49 625.32 1275.4 623.228C1273.31 621.136 1270.47 619.96 1267.51 619.96C1264.55 619.96 1261.71 621.136 1259.62 623.228C1257.53 625.32 1256.35 628.158 1256.35 631.116ZM1256.35 519.554C1256.35 522.513 1257.53 525.35 1259.62 527.443C1261.71 529.535 1264.55 530.71 1267.51 530.71C1270.47 530.71 1273.31 529.535 1275.4 527.443C1277.49 525.35 1278.67 522.513 1278.67 519.554C1278.67 516.595 1277.49 513.757 1275.4 511.665C1273.31 509.573 1270.47 508.398 1267.51 508.398C1264.55 508.398 1261.71 509.573 1259.62 511.665C1257.53 513.757 1256.35 516.595 1256.35 519.554ZM1546.22 352.21C1546.22 355.169 1547.4 358.007 1549.49 360.099C1551.58 362.191 1554.42 363.366 1557.38 363.366C1560.34 363.366 1563.18 362.191 1565.27 360.099C1567.36 358.007 1568.54 355.169 1568.54 352.21C1568.54 349.251 1567.36 346.414 1565.27 344.322C1563.18 342.229 1560.34 341.054 1557.38 341.054C1554.42 341.054 1551.58 342.229 1549.49 344.322C1547.4 346.414 1546.22 349.251 1546.22 352.21ZM1546.22 463.773C1546.22 466.732 1547.4 469.569 1549.49 471.661C1551.58 473.754 1554.42 474.929 1557.38 474.929C1560.34 474.929 1563.18 473.754 1565.27 471.661C1567.36 469.569 1568.54 466.732 1568.54 463.773C1568.54 460.814 1567.36 457.976 1565.27 455.884C1563.18 453.792 1560.34 452.616 1557.38 452.616C1554.42 452.616 1551.58 453.792 1549.49 455.884C1547.4 457.976 1546.22 460.814 1546.22 463.773Z" fill="#4762E6"/>
<path d="M-281.006 119.699V27.4741L-360.885 -18.6384L-440.749 27.4741V119.699L-360.885 165.812M-281.006 119.699L-360.885 165.812M-281.006 119.699L-201.143 165.812V258.037L-281.006 304.149M-360.885 165.812V258.037M-281.006 304.149L-360.885 258.037M-281.006 304.149V396.374L-360.885 442.487L-440.749 396.374V304.149L-360.885 258.037M118.343 534.712V442.487L38.4788 396.374L-41.4 442.487V534.712M118.343 534.712L38.4788 580.824M118.343 534.712L198.221 580.824V673.049L118.343 719.162L38.4788 673.049M38.4788 580.824L-41.4 534.712M38.4788 580.824V673.049M-41.4 534.712L-121.264 580.824V673.049L-41.4 719.162L38.4788 673.049M198.221 27.4741L118.343 -18.6384L38.4788 27.4741V119.699L118.343 165.812L198.221 119.699M198.221 27.4741V119.699M198.221 27.4741L278.085 -18.6384L357.964 27.4741V119.699L278.085 165.812L198.221 119.699M837.192 580.824L757.313 534.712L677.449 580.824V673.049L757.313 719.162L837.192 673.049M837.192 580.824V673.049M837.192 580.824L917.056 534.712M837.192 673.049L917.056 719.162L996.935 673.049M1076.8 534.712V442.487L996.935 396.374L917.056 442.487V534.712M1076.8 534.712L996.935 580.824M1076.8 534.712L1156.68 580.824V673.049L1076.8 719.162L996.935 673.049M996.935 580.824L917.056 534.712M996.935 580.824V673.049M-600.492 119.699L-520.628 165.812V258.037L-600.492 304.149L-680.371 258.037V165.812L-600.492 119.699ZM-680.371 534.712L-600.492 580.824V673.049L-680.371 719.162L-760.249 673.049V580.824L-680.371 534.712ZM-680.371 811.387L-600.492 857.499V949.724L-680.371 995.837L-760.249 949.724V857.499L-680.371 811.387ZM-41.4 811.387L38.4788 857.499V949.724L-41.4 995.837L-121.264 949.724V857.499L-41.4 811.387ZM517.707 673.049L597.571 719.162V811.387L517.707 857.499L437.828 811.387V719.162L517.707 673.049Z" stroke="#B5BFD8" stroke-width="2"/>
</g>
</g>
<defs>
<clipPath id="clip0_125_209">
<rect width="2142" height="833" fill="white" transform="translate(-684)"/>
</clipPath>
</defs>
</svg>
