<svg width="535" height="604" viewBox="0 0 535 604" fill="none" xmlns="http://www.w3.org/2000/svg">
<path d="M222.751 58.7231C223.391 59.8311 224.014 60.95 224.62 62.0794C223.519 61.3595 222.784 60.1282 222.751 58.7231Z" fill="#4BBBF2"/>
<path d="M200.165 30.2446C202.087 32.0485 203.952 33.913 205.755 35.8352C205.058 37.1244 203.694 38 202.125 38C199.847 38 198 36.1532 198 33.875C198 32.3063 198.876 30.9422 200.165 30.2446Z" fill="#4BBBF2"/>
<path d="M173.921 11.3804C175.05 11.9863 176.169 12.6092 177.277 13.2489C175.872 13.2161 174.64 12.4807 173.921 11.3804Z" fill="#4BBBF2"/>
<path d="M53.7231 13.2489C54.8311 12.6092 55.95 11.9863 57.0794 11.3804C56.3595 12.4807 55.1282 13.2161 53.7231 13.2489Z" fill="#4BBBF2"/>
<path d="M25.2446 35.8352C27.0485 33.913 28.913 32.0485 30.8352 30.2446C32.1244 30.9422 33 32.3063 33 33.875C33 36.1532 31.1532 38 28.875 38C27.3063 38 25.9422 37.1244 25.2446 35.8352Z" fill="#4BBBF2"/>
<path d="M6.38041 62.0794C6.98632 60.95 7.60925 59.8311 8.24885 58.7231C8.21606 60.1282 7.48068 61.3595 6.38041 62.0794Z" fill="#4BBBF2"/>
<path d="M224.62 178.921C224.014 180.05 223.391 181.169 222.751 182.277C222.784 180.872 223.519 179.64 224.62 178.921Z" fill="#4BBBF2"/>
<path d="M205.755 205.165C205.058 203.876 203.694 203 202.125 203C199.847 203 198 204.847 198 207.125C198 208.694 198.876 210.058 200.165 210.755C202.087 208.952 203.952 207.087 205.755 205.165Z" fill="#4BBBF2"/>
<path d="M177.277 227.751C175.872 227.784 174.64 228.519 173.921 229.62C175.05 229.014 176.169 228.391 177.277 227.751Z" fill="#4BBBF2"/>
<path d="M57.0794 229.62C56.3595 228.519 55.1282 227.784 53.7231 227.751C54.8311 228.391 55.95 229.014 57.0794 229.62Z" fill="#4BBBF2"/>
<path d="M30.8352 210.755C32.1244 210.058 33 208.694 33 207.125C33 204.847 31.1532 203 28.875 203C27.3063 203 25.9422 203.876 25.2446 205.165C27.0485 207.087 28.913 208.952 30.8352 210.755Z" fill="#4BBBF2"/>
<path d="M8.24885 182.277C8.21606 180.872 7.48068 179.64 6.38042 178.921C6.98632 180.05 7.60925 181.169 8.24885 182.277Z" fill="#4BBBF2"/>
<path d="M82.5 9.125C82.5 11.4032 80.6532 13.25 78.375 13.25C76.0968 13.25 74.25 11.4032 74.25 9.125C74.25 6.84683 76.0968 5 78.375 5C80.6532 5 82.5 6.84683 82.5 9.125Z" fill="#4BBBF2"/>
<path d="M107.25 9.125C107.25 11.4032 105.403 13.25 103.125 13.25C100.847 13.25 99 11.4032 99 9.125C99 6.84683 100.847 5 103.125 5C105.403 5 107.25 6.84683 107.25 9.125Z" fill="#4BBBF2"/>
<path d="M132 9.125C132 11.4032 130.153 13.25 127.875 13.25C125.597 13.25 123.75 11.4032 123.75 9.125C123.75 6.84683 125.597 5 127.875 5C130.153 5 132 6.84683 132 9.125Z" fill="#4BBBF2"/>
<path d="M156.75 9.125C156.75 11.4032 154.903 13.25 152.625 13.25C150.347 13.25 148.5 11.4032 148.5 9.125C148.5 6.84683 150.347 5 152.625 5C154.903 5 156.75 6.84683 156.75 9.125Z" fill="#4BBBF2"/>
<path d="M57.75 33.875C57.75 36.1532 55.9032 38 53.625 38C51.3468 38 49.5 36.1532 49.5 33.875C49.5 31.5968 51.3468 29.75 53.625 29.75C55.9032 29.75 57.75 31.5968 57.75 33.875Z" fill="#4BBBF2"/>
<path d="M82.5 33.875C82.5 36.1532 80.6532 38 78.375 38C76.0968 38 74.25 36.1532 74.25 33.875C74.25 31.5968 76.0968 29.75 78.375 29.75C80.6532 29.75 82.5 31.5968 82.5 33.875Z" fill="#4BBBF2"/>
<path d="M107.25 33.875C107.25 36.1532 105.403 38 103.125 38C100.847 38 99 36.1532 99 33.875C99 31.5968 100.847 29.75 103.125 29.75C105.403 29.75 107.25 31.5968 107.25 33.875Z" fill="#4BBBF2"/>
<path d="M132 33.875C132 36.1532 130.153 38 127.875 38C125.597 38 123.75 36.1532 123.75 33.875C123.75 31.5968 125.597 29.75 127.875 29.75C130.153 29.75 132 31.5968 132 33.875Z" fill="#4BBBF2"/>
<path d="M156.75 33.875C156.75 36.1532 154.903 38 152.625 38C150.347 38 148.5 36.1532 148.5 33.875C148.5 31.5968 150.347 29.75 152.625 29.75C154.903 29.75 156.75 31.5968 156.75 33.875Z" fill="#4BBBF2"/>
<path d="M181.5 33.875C181.5 36.1532 179.653 38 177.375 38C175.097 38 173.25 36.1532 173.25 33.875C173.25 31.5968 175.097 29.75 177.375 29.75C179.653 29.75 181.5 31.5968 181.5 33.875Z" fill="#4BBBF2"/>
<path d="M33 58.625C33 60.9032 31.1532 62.75 28.875 62.75C26.5968 62.75 24.75 60.9032 24.75 58.625C24.75 56.3468 26.5968 54.5 28.875 54.5C31.1532 54.5 33 56.3468 33 58.625Z" fill="#4BBBF2"/>
<path d="M57.75 58.625C57.75 60.9032 55.9032 62.75 53.625 62.75C51.3468 62.75 49.5 60.9032 49.5 58.625C49.5 56.3468 51.3468 54.5 53.625 54.5C55.9032 54.5 57.75 56.3468 57.75 58.625Z" fill="#4BBBF2"/>
<path d="M82.5 58.625C82.5 60.9032 80.6532 62.75 78.375 62.75C76.0968 62.75 74.25 60.9032 74.25 58.625C74.25 56.3468 76.0968 54.5 78.375 54.5C80.6532 54.5 82.5 56.3468 82.5 58.625Z" fill="#4BBBF2"/>
<path d="M107.25 58.625C107.25 60.9032 105.403 62.75 103.125 62.75C100.847 62.75 99 60.9032 99 58.625C99 56.3468 100.847 54.5 103.125 54.5C105.403 54.5 107.25 56.3468 107.25 58.625Z" fill="#4BBBF2"/>
<path d="M132 58.625C132 60.9032 130.153 62.75 127.875 62.75C125.597 62.75 123.75 60.9032 123.75 58.625C123.75 56.3468 125.597 54.5 127.875 54.5C130.153 54.5 132 56.3468 132 58.625Z" fill="#4BBBF2"/>
<path d="M156.75 58.625C156.75 60.9032 154.903 62.75 152.625 62.75C150.347 62.75 148.5 60.9032 148.5 58.625C148.5 56.3468 150.347 54.5 152.625 54.5C154.903 54.5 156.75 56.3468 156.75 58.625Z" fill="#4BBBF2"/>
<path d="M181.5 58.625C181.5 60.9032 179.653 62.75 177.375 62.75C175.097 62.75 173.25 60.9032 173.25 58.625C173.25 56.3468 175.097 54.5 177.375 54.5C179.653 54.5 181.5 56.3468 181.5 58.625Z" fill="#4BBBF2"/>
<path d="M206.25 58.625C206.25 60.9032 204.403 62.75 202.125 62.75C199.847 62.75 198 60.9032 198 58.625C198 56.3468 199.847 54.5 202.125 54.5C204.403 54.5 206.25 56.3468 206.25 58.625Z" fill="#4BBBF2"/>
<path d="M8.25 83.375C8.25 85.6532 6.40317 87.5 4.125 87.5C1.84683 87.5 0 85.6532 0 83.375C0 81.0968 1.84683 79.25 4.125 79.25C6.40317 79.25 8.25 81.0968 8.25 83.375Z" fill="#4BBBF2"/>
<path d="M33 83.375C33 85.6532 31.1532 87.5 28.875 87.5C26.5968 87.5 24.75 85.6532 24.75 83.375C24.75 81.0968 26.5968 79.25 28.875 79.25C31.1532 79.25 33 81.0968 33 83.375Z" fill="#4BBBF2"/>
<path d="M57.75 83.375C57.75 85.6532 55.9032 87.5 53.625 87.5C51.3468 87.5 49.5 85.6532 49.5 83.375C49.5 81.0968 51.3468 79.25 53.625 79.25C55.9032 79.25 57.75 81.0968 57.75 83.375Z" fill="#4BBBF2"/>
<path d="M82.5 83.375C82.5 85.6532 80.6532 87.5 78.375 87.5C76.0968 87.5 74.25 85.6532 74.25 83.375C74.25 81.0968 76.0968 79.25 78.375 79.25C80.6532 79.25 82.5 81.0968 82.5 83.375Z" fill="#4BBBF2"/>
<path d="M107.25 83.375C107.25 85.6532 105.403 87.5 103.125 87.5C100.847 87.5 99 85.6532 99 83.375C99 81.0968 100.847 79.25 103.125 79.25C105.403 79.25 107.25 81.0968 107.25 83.375Z" fill="#4BBBF2"/>
<path d="M132 83.375C132 85.6532 130.153 87.5 127.875 87.5C125.597 87.5 123.75 85.6532 123.75 83.375C123.75 81.0968 125.597 79.25 127.875 79.25C130.153 79.25 132 81.0968 132 83.375Z" fill="#4BBBF2"/>
<path d="M156.75 83.375C156.75 85.6532 154.903 87.5 152.625 87.5C150.347 87.5 148.5 85.6532 148.5 83.375C148.5 81.0968 150.347 79.25 152.625 79.25C154.903 79.25 156.75 81.0968 156.75 83.375Z" fill="#4BBBF2"/>
<path d="M181.5 83.375C181.5 85.6532 179.653 87.5 177.375 87.5C175.097 87.5 173.25 85.6532 173.25 83.375C173.25 81.0968 175.097 79.25 177.375 79.25C179.653 79.25 181.5 81.0968 181.5 83.375Z" fill="#4BBBF2"/>
<path d="M206.25 83.375C206.25 85.6532 204.403 87.5 202.125 87.5C199.847 87.5 198 85.6532 198 83.375C198 81.0968 199.847 79.25 202.125 79.25C204.403 79.25 206.25 81.0968 206.25 83.375Z" fill="#4BBBF2"/>
<path d="M231 83.375C231 85.6532 229.153 87.5 226.875 87.5C224.597 87.5 222.75 85.6532 222.75 83.375C222.75 81.0968 224.597 79.25 226.875 79.25C229.153 79.25 231 81.0968 231 83.375Z" fill="#4BBBF2"/>
<path d="M8.25 108.125C8.25 110.403 6.40317 112.25 4.125 112.25C1.84683 112.25 0 110.403 0 108.125C0 105.847 1.84683 104 4.125 104C6.40317 104 8.25 105.847 8.25 108.125Z" fill="#4BBBF2"/>
<path d="M33 108.125C33 110.403 31.1532 112.25 28.875 112.25C26.5968 112.25 24.75 110.403 24.75 108.125C24.75 105.847 26.5968 104 28.875 104C31.1532 104 33 105.847 33 108.125Z" fill="#4BBBF2"/>
<path d="M57.75 108.125C57.75 110.403 55.9032 112.25 53.625 112.25C51.3468 112.25 49.5 110.403 49.5 108.125C49.5 105.847 51.3468 104 53.625 104C55.9032 104 57.75 105.847 57.75 108.125Z" fill="#4BBBF2"/>
<path d="M82.5 108.125C82.5 110.403 80.6532 112.25 78.375 112.25C76.0968 112.25 74.25 110.403 74.25 108.125C74.25 105.847 76.0968 104 78.375 104C80.6532 104 82.5 105.847 82.5 108.125Z" fill="#4BBBF2"/>
<path d="M107.25 108.125C107.25 110.403 105.403 112.25 103.125 112.25C100.847 112.25 99 110.403 99 108.125C99 105.847 100.847 104 103.125 104C105.403 104 107.25 105.847 107.25 108.125Z" fill="#4BBBF2"/>
<path d="M132 108.125C132 110.403 130.153 112.25 127.875 112.25C125.597 112.25 123.75 110.403 123.75 108.125C123.75 105.847 125.597 104 127.875 104C130.153 104 132 105.847 132 108.125Z" fill="#4BBBF2"/>
<path d="M156.75 108.125C156.75 110.403 154.903 112.25 152.625 112.25C150.347 112.25 148.5 110.403 148.5 108.125C148.5 105.847 150.347 104 152.625 104C154.903 104 156.75 105.847 156.75 108.125Z" fill="#4BBBF2"/>
<path d="M181.5 108.125C181.5 110.403 179.653 112.25 177.375 112.25C175.097 112.25 173.25 110.403 173.25 108.125C173.25 105.847 175.097 104 177.375 104C179.653 104 181.5 105.847 181.5 108.125Z" fill="#4BBBF2"/>
<path d="M206.25 108.125C206.25 110.403 204.403 112.25 202.125 112.25C199.847 112.25 198 110.403 198 108.125C198 105.847 199.847 104 202.125 104C204.403 104 206.25 105.847 206.25 108.125Z" fill="#4BBBF2"/>
<path d="M231 108.125C231 110.403 229.153 112.25 226.875 112.25C224.597 112.25 222.75 110.403 222.75 108.125C222.75 105.847 224.597 104 226.875 104C229.153 104 231 105.847 231 108.125Z" fill="#4BBBF2"/>
<path d="M8.25 132.875C8.25 135.153 6.40317 137 4.125 137C1.84683 137 0 135.153 0 132.875C0 130.597 1.84683 128.75 4.125 128.75C6.40317 128.75 8.25 130.597 8.25 132.875Z" fill="#4BBBF2"/>
<path d="M33 132.875C33 135.153 31.1532 137 28.875 137C26.5968 137 24.75 135.153 24.75 132.875C24.75 130.597 26.5968 128.75 28.875 128.75C31.1532 128.75 33 130.597 33 132.875Z" fill="#4BBBF2"/>
<path d="M57.75 132.875C57.75 135.153 55.9032 137 53.625 137C51.3468 137 49.5 135.153 49.5 132.875C49.5 130.597 51.3468 128.75 53.625 128.75C55.9032 128.75 57.75 130.597 57.75 132.875Z" fill="#4BBBF2"/>
<path d="M82.5 132.875C82.5 135.153 80.6532 137 78.375 137C76.0968 137 74.25 135.153 74.25 132.875C74.25 130.597 76.0968 128.75 78.375 128.75C80.6532 128.75 82.5 130.597 82.5 132.875Z" fill="#4BBBF2"/>
<path d="M107.25 132.875C107.25 135.153 105.403 137 103.125 137C100.847 137 99 135.153 99 132.875C99 130.597 100.847 128.75 103.125 128.75C105.403 128.75 107.25 130.597 107.25 132.875Z" fill="#4BBBF2"/>
<path d="M132 132.875C132 135.153 130.153 137 127.875 137C125.597 137 123.75 135.153 123.75 132.875C123.75 130.597 125.597 128.75 127.875 128.75C130.153 128.75 132 130.597 132 132.875Z" fill="#4BBBF2"/>
<path d="M156.75 132.875C156.75 135.153 154.903 137 152.625 137C150.347 137 148.5 135.153 148.5 132.875C148.5 130.597 150.347 128.75 152.625 128.75C154.903 128.75 156.75 130.597 156.75 132.875Z" fill="#4BBBF2"/>
<path d="M181.5 132.875C181.5 135.153 179.653 137 177.375 137C175.097 137 173.25 135.153 173.25 132.875C173.25 130.597 175.097 128.75 177.375 128.75C179.653 128.75 181.5 130.597 181.5 132.875Z" fill="#4BBBF2"/>
<path d="M206.25 132.875C206.25 135.153 204.403 137 202.125 137C199.847 137 198 135.153 198 132.875C198 130.597 199.847 128.75 202.125 128.75C204.403 128.75 206.25 130.597 206.25 132.875Z" fill="#4BBBF2"/>
<path d="M231 132.875C231 135.153 229.153 137 226.875 137C224.597 137 222.75 135.153 222.75 132.875C222.75 130.597 224.597 128.75 226.875 128.75C229.153 128.75 231 130.597 231 132.875Z" fill="#4BBBF2"/>
<path d="M8.25 157.625C8.25 159.903 6.40317 161.75 4.125 161.75C1.84683 161.75 0 159.903 0 157.625C0 155.347 1.84683 153.5 4.125 153.5C6.40317 153.5 8.25 155.347 8.25 157.625Z" fill="#4BBBF2"/>
<path d="M33 157.625C33 159.903 31.1532 161.75 28.875 161.75C26.5968 161.75 24.75 159.903 24.75 157.625C24.75 155.347 26.5968 153.5 28.875 153.5C31.1532 153.5 33 155.347 33 157.625Z" fill="#4BBBF2"/>
<path d="M57.75 157.625C57.75 159.903 55.9032 161.75 53.625 161.75C51.3468 161.75 49.5 159.903 49.5 157.625C49.5 155.347 51.3468 153.5 53.625 153.5C55.9032 153.5 57.75 155.347 57.75 157.625Z" fill="#4BBBF2"/>
<path d="M82.5 157.625C82.5 159.903 80.6532 161.75 78.375 161.75C76.0968 161.75 74.25 159.903 74.25 157.625C74.25 155.347 76.0968 153.5 78.375 153.5C80.6532 153.5 82.5 155.347 82.5 157.625Z" fill="#4BBBF2"/>
<path d="M107.25 157.625C107.25 159.903 105.403 161.75 103.125 161.75C100.847 161.75 99 159.903 99 157.625C99 155.347 100.847 153.5 103.125 153.5C105.403 153.5 107.25 155.347 107.25 157.625Z" fill="#4BBBF2"/>
<path d="M132 157.625C132 159.903 130.153 161.75 127.875 161.75C125.597 161.75 123.75 159.903 123.75 157.625C123.75 155.347 125.597 153.5 127.875 153.5C130.153 153.5 132 155.347 132 157.625Z" fill="#4BBBF2"/>
<path d="M156.75 157.625C156.75 159.903 154.903 161.75 152.625 161.75C150.347 161.75 148.5 159.903 148.5 157.625C148.5 155.347 150.347 153.5 152.625 153.5C154.903 153.5 156.75 155.347 156.75 157.625Z" fill="#4BBBF2"/>
<path d="M181.5 157.625C181.5 159.903 179.653 161.75 177.375 161.75C175.097 161.75 173.25 159.903 173.25 157.625C173.25 155.347 175.097 153.5 177.375 153.5C179.653 153.5 181.5 155.347 181.5 157.625Z" fill="#4BBBF2"/>
<path d="M206.25 157.625C206.25 159.903 204.403 161.75 202.125 161.75C199.847 161.75 198 159.903 198 157.625C198 155.347 199.847 153.5 202.125 153.5C204.403 153.5 206.25 155.347 206.25 157.625Z" fill="#4BBBF2"/>
<path d="M231 157.625C231 159.903 229.153 161.75 226.875 161.75C224.597 161.75 222.75 159.903 222.75 157.625C222.75 155.347 224.597 153.5 226.875 153.5C229.153 153.5 231 155.347 231 157.625Z" fill="#4BBBF2"/>
<path d="M33 182.375C33 184.653 31.1532 186.5 28.875 186.5C26.5968 186.5 24.75 184.653 24.75 182.375C24.75 180.097 26.5968 178.25 28.875 178.25C31.1532 178.25 33 180.097 33 182.375Z" fill="#4BBBF2"/>
<path d="M57.75 182.375C57.75 184.653 55.9032 186.5 53.625 186.5C51.3468 186.5 49.5 184.653 49.5 182.375C49.5 180.097 51.3468 178.25 53.625 178.25C55.9032 178.25 57.75 180.097 57.75 182.375Z" fill="#4BBBF2"/>
<path d="M82.5 182.375C82.5 184.653 80.6532 186.5 78.375 186.5C76.0968 186.5 74.25 184.653 74.25 182.375C74.25 180.097 76.0968 178.25 78.375 178.25C80.6532 178.25 82.5 180.097 82.5 182.375Z" fill="#4BBBF2"/>
<path d="M107.25 182.375C107.25 184.653 105.403 186.5 103.125 186.5C100.847 186.5 99 184.653 99 182.375C99 180.097 100.847 178.25 103.125 178.25C105.403 178.25 107.25 180.097 107.25 182.375Z" fill="#4BBBF2"/>
<path d="M132 182.375C132 184.653 130.153 186.5 127.875 186.5C125.597 186.5 123.75 184.653 123.75 182.375C123.75 180.097 125.597 178.25 127.875 178.25C130.153 178.25 132 180.097 132 182.375Z" fill="#4BBBF2"/>
<path d="M156.75 182.375C156.75 184.653 154.903 186.5 152.625 186.5C150.347 186.5 148.5 184.653 148.5 182.375C148.5 180.097 150.347 178.25 152.625 178.25C154.903 178.25 156.75 180.097 156.75 182.375Z" fill="#4BBBF2"/>
<path d="M181.5 182.375C181.5 184.653 179.653 186.5 177.375 186.5C175.097 186.5 173.25 184.653 173.25 182.375C173.25 180.097 175.097 178.25 177.375 178.25C179.653 178.25 181.5 180.097 181.5 182.375Z" fill="#4BBBF2"/>
<path d="M206.25 182.375C206.25 184.653 204.403 186.5 202.125 186.5C199.847 186.5 198 184.653 198 182.375C198 180.097 199.847 178.25 202.125 178.25C204.403 178.25 206.25 180.097 206.25 182.375Z" fill="#4BBBF2"/>
<path d="M57.75 207.125C57.75 209.403 55.9032 211.25 53.625 211.25C51.3468 211.25 49.5 209.403 49.5 207.125C49.5 204.847 51.3468 203 53.625 203C55.9032 203 57.75 204.847 57.75 207.125Z" fill="#4BBBF2"/>
<path d="M82.5 207.125C82.5 209.403 80.6532 211.25 78.375 211.25C76.0968 211.25 74.25 209.403 74.25 207.125C74.25 204.847 76.0968 203 78.375 203C80.6532 203 82.5 204.847 82.5 207.125Z" fill="#4BBBF2"/>
<path d="M107.25 207.125C107.25 209.403 105.403 211.25 103.125 211.25C100.847 211.25 99 209.403 99 207.125C99 204.847 100.847 203 103.125 203C105.403 203 107.25 204.847 107.25 207.125Z" fill="#4BBBF2"/>
<path d="M132 207.125C132 209.403 130.153 211.25 127.875 211.25C125.597 211.25 123.75 209.403 123.75 207.125C123.75 204.847 125.597 203 127.875 203C130.153 203 132 204.847 132 207.125Z" fill="#4BBBF2"/>
<path d="M156.75 207.125C156.75 209.403 154.903 211.25 152.625 211.25C150.347 211.25 148.5 209.403 148.5 207.125C148.5 204.847 150.347 203 152.625 203C154.903 203 156.75 204.847 156.75 207.125Z" fill="#4BBBF2"/>
<path d="M181.5 207.125C181.5 209.403 179.653 211.25 177.375 211.25C175.097 211.25 173.25 209.403 173.25 207.125C173.25 204.847 175.097 203 177.375 203C179.653 203 181.5 204.847 181.5 207.125Z" fill="#4BBBF2"/>
<path d="M82.5 231.875C82.5 234.153 80.6532 236 78.375 236C76.0968 236 74.25 234.153 74.25 231.875C74.25 229.597 76.0968 227.75 78.375 227.75C80.6532 227.75 82.5 229.597 82.5 231.875Z" fill="#4BBBF2"/>
<path d="M107.25 231.875C107.25 234.153 105.403 236 103.125 236C100.847 236 99 234.153 99 231.875C99 229.597 100.847 227.75 103.125 227.75C105.403 227.75 107.25 229.597 107.25 231.875Z" fill="#4BBBF2"/>
<path d="M132 231.875C132 234.153 130.153 236 127.875 236C125.597 236 123.75 234.153 123.75 231.875C123.75 229.597 125.597 227.75 127.875 227.75C130.153 227.75 132 229.597 132 231.875Z" fill="#4BBBF2"/>
<path d="M156.75 231.875C156.75 234.153 154.903 236 152.625 236C150.347 236 148.5 234.153 148.5 231.875C148.5 229.597 150.347 227.75 152.625 227.75C154.903 227.75 156.75 229.597 156.75 231.875Z" fill="#4BBBF2"/>
<path d="M121.567 415.87H54.2459C51.4454 415.868 48.7287 414.914 46.5425 413.163C44.3564 411.413 42.831 408.971 42.2171 406.238L27.5466 340.849C27.1427 339.047 27.1492 337.177 27.5655 335.377C27.9819 333.578 28.7975 331.895 29.952 330.453C31.1065 329.011 32.5703 327.848 34.2353 327.048C35.9002 326.248 37.7236 325.833 39.5707 325.833" stroke="#6562CF" stroke-width="5" stroke-miterlimit="10" stroke-linecap="round"/>
<path d="M245.739 415.87H178.418C175.617 415.868 172.9 414.914 170.714 413.163C168.528 411.413 167.003 408.971 166.389 406.238L151.718 340.849C151.314 339.047 151.321 337.177 151.737 335.377C152.154 333.578 152.969 331.895 154.124 330.453C155.278 329.011 156.742 327.848 158.407 327.048C160.072 326.248 161.895 325.833 163.742 325.833" stroke="#6562CF" stroke-width="5" stroke-miterlimit="10" stroke-linecap="round"/>
<path d="M172.056 348.903H57.8081C53.65 348.903 49.6144 347.496 46.3578 344.911C43.1013 342.326 40.8156 338.714 39.8727 334.664L23.4092 263.958C22.8727 261.654 22.8637 259.258 23.3827 256.95C23.9018 254.641 24.9356 252.48 26.407 250.627C27.8783 248.774 29.7492 247.277 31.88 246.248C34.0108 245.219 36.3464 244.685 38.7125 244.685H152.965C157.122 244.686 161.157 246.093 164.413 248.678C167.669 251.264 169.954 254.875 170.895 258.924L187.359 329.645C187.892 331.948 187.898 334.342 187.378 336.648C186.857 338.955 185.823 341.114 184.352 342.965C182.881 344.816 181.012 346.311 178.883 347.339C176.754 348.368 174.42 348.902 172.056 348.903Z" fill="white" stroke="#6562CF" stroke-width="5" stroke-miterlimit="10" stroke-linecap="round"/>
<path d="M249.191 399.56H65.9584C61.4545 399.56 57.8033 403.211 57.8033 407.715C57.8033 412.219 61.4545 415.87 65.9584 415.87H249.191C253.695 415.87 257.346 412.219 257.346 407.715C257.346 403.211 253.695 399.56 249.191 399.56Z" fill="#EAEEFF" stroke="#6562CF" stroke-width="5" stroke-miterlimit="10" stroke-linecap="round"/>
<path d="M44.1779 601.274L66.9267 431.739C67.363 422.846 74.3722 415.87 82.8725 415.87H122.186C130.686 415.87 137.695 422.846 138.136 431.739L160.885 601.274" stroke="#6562CF" stroke-width="5" stroke-miterlimit="10" stroke-linecap="round"/>
<path d="M188.658 415.87H226.83C235.081 415.87 241.889 422.846 242.316 431.739L264.825 601.274" stroke="#6562CF" stroke-width="5" stroke-miterlimit="10" stroke-linecap="round"/>
<path d="M368.789 247.874C371.267 249.509 377.016 261.686 377.121 263.153C377.227 264.62 370.625 275.522 370.625 275.522C370.625 275.522 368.002 275.58 367.504 269.582C366.895 262.482 363.779 259.792 359.262 258.781C357.373 258.359 353.902 259.797 353.658 262.578C353.413 265.359 360.595 267.204 362.038 268.892C364.229 271.443 362.997 275.038 362.997 275.125C362.997 275.125 351.913 271.769 349.784 271.145C347.866 270.575 339.304 262.789 333.963 255.07C331.976 256.526 329.894 257.847 327.73 259.025C314.306 266.246 268.281 283.04 244.439 279.233C220.497 275.398 239.621 199.169 239.621 199.169C274.293 200.77 288.81 196.355 291.457 195.42L286.073 230.658C300.643 230.226 336.494 236.166 336.514 236.171C346.586 237.494 365.226 245.529 368.789 247.874Z" fill="#F1921B"/>
<path d="M239.453 199.135H239.66C274.332 200.736 288.849 196.321 291.495 195.386L290.225 204.016C290.225 204.016 264.503 216.126 235.896 215.042L239.453 199.135Z" fill="#EB7200"/>
<path d="M242.929 295.49C251.166 294.886 266.095 199.039 266.095 199.039C284.481 199.308 306.712 190.731 306.712 190.731C306.712 190.731 291.51 140.909 286.27 130.634C281.03 120.36 243.414 102.598 238.974 101.313L165.651 84.5327C165.651 84.5327 103.061 100.081 83.3232 116.036C63.5852 131.991 48.162 199.293 48.162 199.293C84.4115 213.911 121.994 211.758 121.994 211.758L109.217 288.769C105.08 307.466 91.8618 366.829 115.167 395.652C115.167 395.652 133.917 303.497 242.929 295.49Z" fill="#EAEEFF"/>
<path d="M194.742 109.19L172.813 122.57L145.006 90.2379L165.881 77.7344C166.489 77.3721 167.163 77.1342 167.864 77.0346C168.565 76.9349 169.278 76.9754 169.964 77.1539C170.649 77.3323 171.291 77.645 171.855 78.0738C172.418 78.5027 172.89 79.0392 173.245 79.6521L194.742 109.19Z" fill="#DBDAFF"/>
<path d="M228.091 112.258L243.524 121.367L242.781 102.852L238.974 101.313C238.974 101.313 232.195 105.858 228.091 112.258Z" fill="#DBDAFF"/>
<path d="M121.994 211.749C124.966 202.012 127.939 178.491 127.939 178.491" stroke="#C7BFFF" stroke-width="5" stroke-linejoin="round"/>
<path d="M172.813 122.57L194.33 110.005C194.33 110.005 214.974 134.566 215.549 138.861C216.125 143.157 217.208 186.962 217.208 186.962H228.091" stroke="#C7BFFF" stroke-width="5" stroke-linejoin="round"/>
<path d="M243.116 121.348L228.499 113.073C228.499 113.073 215.242 134.043 215.554 138.861" stroke="#C7BFFF" stroke-width="5" stroke-linejoin="round"/>
<path d="M124.329 202.074C124.329 202.074 77.9967 203.45 50.7653 188.942" stroke="#C7BFFF" stroke-width="5" stroke-linejoin="round"/>
<path d="M262.945 277.948C262.945 280.149 240.345 279.348 237.162 279.348C233.978 279.348 214.039 280.106 209.355 279.348C183.893 281.443 70.321 289.699 57.1127 271.342C41.8238 250.084 55.4827 201.997 55.4827 201.997C89.7857 213.911 121.994 211.744 121.994 211.744L119.179 230.005C146.406 233.361 195.538 250.621 212.241 256.666C215.822 255.521 229.457 251.393 236.361 252.965C244.348 254.763 253.942 261.954 254.939 263.954C255.936 265.953 262.945 275.752 262.945 277.948Z" fill="#F1921B"/>
<path d="M237.147 279.348C240.331 279.348 262.931 280.149 262.931 277.953C262.931 275.757 255.936 265.967 254.939 263.968C253.942 261.969 244.353 254.777 236.361 252.98C236.361 252.98 246.223 266.677 237.147 279.348Z" fill="#EB7200"/>
<path d="M55.4634 202.012C55.4634 202.012 90.5719 214.362 121.994 211.749L119.179 230.005C119.179 230.005 77.2486 223.293 53.9772 208.105L55.4634 202.012Z" fill="#EB7200"/>
<path d="M359.209 603H281.576C281.499 601.816 281.47 600.684 281.494 599.596H359.31C359.395 600.731 359.361 601.872 359.209 603Z" fill="#3F4D79"/>
<path d="M289.486 568.242C289.764 576.708 281.581 582.073 281.581 599.572H359.209C359.209 599.572 360.336 584.892 344.827 581.507C329.317 578.123 315.184 573.602 313.774 568.242H289.486Z" fill="#FFB000"/>
<path d="M314.306 584.058L321.392 573.568" stroke="#3F4D79" stroke-width="5" stroke-miterlimit="10" stroke-linecap="round"/>
<path d="M319.834 585.333L326.498 575.697" stroke="#3F4D79" stroke-width="5" stroke-miterlimit="10" stroke-linecap="round"/>
<path d="M327.064 585.76L332.453 576.972" stroke="#3F4D79" stroke-width="5" stroke-miterlimit="10" stroke-linecap="round"/>
<path d="M205.999 302.274C205.999 302.274 324.485 294.862 353.279 328.739C382.073 362.615 326.182 483.431 320.534 556.826C320.534 556.826 292.181 559.65 280.67 556.826C269.159 554.003 259.139 428.522 288.144 394.08C288.144 394.08 177.876 419.446 134.876 387.454C91.8759 355.462 188.111 302.878 205.999 302.274Z" fill="#3C4564"/>
<path d="M313.764 568.242C305.892 570.902 297.363 570.902 289.491 568.242L287.195 557.771C287.195 557.771 302.277 558.533 316.056 557.215L313.764 568.242Z" fill="#F1921B"/>
<path d="M534.642 485.444L473.059 532.711C472.187 531.647 471.399 530.606 470.696 529.59L532.034 482.51C533.012 483.386 533.887 484.37 534.642 485.444Z" fill="#3F4D79"/>
<path d="M457.703 500.062C463.082 506.611 459.851 515.85 470.509 529.734L532.091 482.467C532.091 482.467 524.046 470.136 509.668 476.901C495.29 483.666 481.344 488.681 476.957 485.281L457.703 500.062Z" fill="#FFB000"/>
<path d="M487.183 496.749L486.421 484.529" stroke="#3F4D79" stroke-width="5" stroke-miterlimit="10" stroke-linecap="round"/>
<path d="M491.862 493.772L491.1 482.827" stroke="#3F4D79" stroke-width="5" stroke-miterlimit="10" stroke-linecap="round"/>
<path d="M496.542 490.795L495.779 481.125" stroke="#3F4D79" stroke-width="5" stroke-miterlimit="10" stroke-linecap="round"/>
<path d="M115.167 390.858C116.941 400.418 217.764 423.584 325.05 355.86C325.05 355.86 332.103 437.554 440.506 496.812C440.506 496.812 464.094 488.297 474.694 469.585C474.694 469.585 403.979 386.888 376.752 310.947C365.322 279.06 221.47 295.754 200.438 302.274C179.405 308.795 107.261 348.251 115.167 390.858Z" fill="#3F4D79"/>
<path d="M476.957 485.281C476.957 485.281 472.311 499.588 457.703 500.062L448.182 493.312C456.791 488.911 464.448 482.855 470.715 475.491L476.957 485.281Z" fill="#F1921B"/>
<path d="M207.811 58.1786C207.811 58.1786 203.329 69.9629 174.251 81.1911C174.251 81.1911 194.713 109.199 215.525 135.515C215.525 135.515 223.867 111.337 238.945 101.322L207.811 58.1786Z" fill="#F1921B"/>
<path d="M238.974 101.313C234.53 104.347 230.785 108.447 227.688 112.819C218.1 105.627 207.317 93.0042 204.124 83.8471C202.547 79.3165 206.723 67.0671 209.144 59.9908L238.974 101.313Z" fill="#EB7200"/>
<path d="M207.226 60.4798C207.226 64.3152 203.894 76.1235 207.926 80.8603C215.3 89.5235 236.423 103.393 246.813 102.813C254.215 102.415 264.7 70.3033 266.263 65.5042C267.826 60.7051 274.576 41.4609 269.782 36.3167C264.988 31.1724 224.912 19.9154 216.949 36.494C208.123 54.8705 207.226 60.4798 207.226 60.4798Z" fill="#F1921B"/>
<path d="M286.27 25.1556C282.334 50.9056 265.563 54.2712 232.526 34.9311C217.39 26.0761 228.091 41.9356 219.581 55.7047L216.801 56.7403C216.892 55.3547 217.088 49.6304 214.24 49.616C210.045 49.616 208.756 55.9636 208.353 59.8805L206.742 60.4798C206.742 60.4798 206.57 31.7765 210.64 22.653C220.708 0.0671441 249.809 12.2686 256.948 16.1088C279.471 28.2143 286.27 25.1556 286.27 25.1556Z" fill="#FFB000"/>
<path d="M231.783 32.9607C255.275 51.5049 273.733 55.9013 282.899 44.9991" stroke="#FFB000" stroke-width="4" stroke-miterlimit="10"/>
<path d="M212.189 41.3957L212.143 41.3826C206.519 39.7829 200.664 43.0446 199.064 48.6678L197.76 53.2515C196.161 58.8747 199.422 64.7301 205.046 66.3298L205.092 66.3429C210.715 67.9426 216.57 64.6809 218.17 59.0576L219.474 54.474C221.074 48.8507 217.812 42.9954 212.189 41.3957Z" fill="white" stroke="#3F4D79" stroke-width="5" stroke-miterlimit="10" stroke-linecap="round"/>
<path d="M219.864 53.0966L217.764 60.4798C217.1 62.8093 215.539 64.7799 213.422 65.9585C211.306 67.1371 208.809 67.4272 206.479 66.7651L203.64 65.9549C203.516 65.9213 203.396 65.883 203.271 65.8398C205.562 66.3948 207.979 66.04 210.014 64.85C212.049 63.66 213.543 61.7275 214.183 59.4586L216.283 52.0754C216.932 49.8105 216.679 47.3819 215.576 45.2999C214.473 43.2178 212.606 41.6442 210.367 40.9096L210.741 41.0055L213.565 41.8013C214.722 42.1251 215.805 42.6749 216.749 43.419C217.694 44.1632 218.481 45.0869 219.067 46.1369C219.653 47.187 220.024 48.3426 220.161 49.5371C220.298 50.7316 220.197 51.9413 219.864 53.0966Z" fill="white" stroke="#3F4D79" stroke-width="5" stroke-miterlimit="10" stroke-linecap="round"/>
<path d="M210.741 40.9911L219.37 10.6913C219.75 9.35393 220.39 8.10459 221.253 7.01458C222.116 5.92457 223.186 5.01525 224.4 4.33854C225.615 3.66184 226.951 3.231 228.332 3.07065C229.713 2.91029 231.112 3.02355 232.449 3.40396L263.132 12.1295C266.93 13.2083 268.655 16.2047 267.572 20.0065" stroke="#3F4D79" stroke-width="5" stroke-miterlimit="10" stroke-linecap="round"/>
<path d="M354.094 280.556H219.572C213.43 280.556 209.537 274.415 212.5 269.4L258.046 192.37C262.006 185.658 269.552 181.507 277.779 181.507H412.306C418.448 181.507 422.341 187.648 419.378 192.663L373.832 269.692C369.858 276.395 362.302 280.556 354.094 280.556Z" fill="#EAEEFF"/>
<path d="M352.776 283.03H223.776C217.759 283.03 213.948 277.013 216.853 272.099L261.474 196.632C265.357 190.064 272.764 185.989 280.809 185.989H409.809C415.825 185.989 419.637 192.006 416.732 196.92L372.111 272.382C368.228 278.95 360.821 283.03 352.776 283.03Z" fill="#C0C1FF"/>
<path d="M354.094 280.556H219.572C213.43 280.556 209.537 274.415 212.5 269.4L258.046 192.37C262.006 185.658 269.552 181.507 277.779 181.507H412.306C418.448 181.507 422.341 187.648 419.378 192.663L373.832 269.692C369.858 276.395 362.302 280.556 354.094 280.556Z" stroke="#6562CF" stroke-width="5" stroke-miterlimit="10"/>
<path d="M355.907 280.657H110.262C107.673 280.657 105.573 282.756 105.573 285.346V286.381C105.573 288.971 107.673 291.07 110.262 291.07H355.907C358.496 291.07 360.595 288.971 360.595 286.381V285.346C360.595 282.756 358.496 280.657 355.907 280.657Z" fill="#D1D1FF" stroke="#6562CF" stroke-width="6" stroke-miterlimit="10"/>
</svg>
