<svg width="153" height="34" viewBox="0 0 153 34" fill="none" xmlns="http://www.w3.org/2000/svg">
<path d="M31.9716 9.05534V6.18176H45.5104V9.05534H40.4635V22.6666H37.0184V9.05534H31.9716ZM51.5172 22.9081C50.2453 22.9081 49.1506 22.6505 48.2331 22.1354C47.3207 21.6149 46.6178 20.8796 46.1241 19.9299C45.6305 18.9746 45.3836 17.8451 45.3836 16.5411C45.3836 15.2693 45.6305 14.1532 46.1241 13.1926C46.6178 12.2321 47.3128 11.4835 48.2088 10.9469C49.1104 10.4103 50.1675 10.142 51.3803 10.142C52.1959 10.142 52.9552 10.2735 53.6582 10.5364C54.3665 10.794 54.9836 11.183 55.5095 11.7035C56.0407 12.2241 56.454 12.8787 56.7491 13.6676C57.0443 14.4511 57.1918 15.3686 57.1918 16.4204V17.3622H46.7519V15.2372H53.964C53.964 14.7435 53.8568 14.3061 53.6422 13.9251C53.4274 13.5441 53.1296 13.2463 52.7487 13.0317C52.373 12.8117 51.9357 12.7016 51.4366 12.7016C50.9161 12.7016 50.4547 12.8224 50.0522 13.0639C49.6551 13.3 49.3439 13.6193 49.1185 14.0217C48.8931 14.4188 48.7776 14.8615 48.7724 15.3498V17.3703C48.7724 17.982 48.885 18.5105 49.1104 18.9559C49.3412 19.4013 49.6657 19.7447 50.0843 19.9863C50.5028 20.2277 50.9992 20.3484 51.5734 20.3484C51.9545 20.3484 52.3033 20.2948 52.6199 20.1874C52.9365 20.0801 53.2074 19.9191 53.4328 19.7045C53.6582 19.4899 53.8299 19.2269 53.948 18.9157L57.1194 19.1249C56.9584 19.887 56.6284 20.5524 56.1293 21.1212C55.6357 21.6846 54.9971 22.1246 54.2137 22.4412C53.4355 22.7525 52.5367 22.9081 51.5172 22.9081ZM65.0157 22.9081C63.7492 22.9081 62.66 22.6398 61.7476 22.1032C60.8408 21.5612 60.1433 20.8099 59.6549 19.8494C59.172 18.8888 58.9304 17.7834 58.9304 16.5331C58.9304 15.2666 59.1747 14.1559 59.663 13.2007C60.1566 12.2402 60.857 11.4916 61.7638 10.955C62.6707 10.413 63.7492 10.142 64.9996 10.142C66.0782 10.142 67.0226 10.3379 67.8329 10.7296C68.6432 11.1213 69.2844 11.6713 69.7568 12.3797C70.2289 13.088 70.4892 13.9198 70.5375 14.8749H67.3017C67.2104 14.2578 66.969 13.7615 66.5772 13.3858C66.1909 13.0048 65.6838 12.8143 65.056 12.8143C64.5247 12.8143 64.0605 12.9592 63.6634 13.249C63.2717 13.5334 62.9658 13.9493 62.7458 14.4967C62.5258 15.0439 62.4157 15.7067 62.4157 16.4848C62.4157 17.2736 62.5231 17.9444 62.7377 18.4971C62.9577 19.0499 63.2663 19.471 63.6634 19.7609C64.0605 20.0506 64.5247 20.1955 65.056 20.1955C65.4477 20.1955 65.7991 20.115 66.1104 19.954C66.427 19.793 66.6873 19.5596 66.8911 19.2537C67.1005 18.9425 67.2372 18.5696 67.3017 18.1348H70.5375C70.4838 19.0793 70.2262 19.911 69.7647 20.6301C69.3087 21.3439 68.6781 21.9019 67.8731 22.3044C67.0682 22.7068 66.1158 22.9081 65.0157 22.9081ZM76.1619 15.5188V22.6666H72.7329V6.18176H76.0653V12.4843H76.2102C76.4892 11.7545 76.94 11.183 77.5624 10.7698C78.1849 10.3513 78.9656 10.142 79.9048 10.142C80.7634 10.142 81.512 10.3298 82.1505 10.7054C82.7945 11.0757 83.2936 11.6096 83.6477 12.3072C84.0071 12.9995 84.1842 13.8285 84.179 14.7945V22.6666H80.7499V15.4062C80.7553 14.6442 80.5621 14.0512 80.1704 13.6273C79.7841 13.2034 79.242 12.9914 78.5445 12.9914C78.0775 12.9914 77.6644 13.0907 77.3049 13.2892C76.9507 13.4878 76.6716 13.7776 76.4678 14.1586C76.2692 14.5342 76.1673 14.9876 76.1619 15.5188ZM88.5517 27.3029C88.117 27.3029 87.7092 27.2681 87.3282 27.1984C86.9525 27.1339 86.6413 27.0508 86.3945 26.9488L87.1672 24.3891C87.5696 24.5125 87.9319 24.5797 88.2539 24.5904C88.5811 24.6011 88.8629 24.526 89.0991 24.365C89.3405 24.204 89.5364 23.9303 89.6866 23.544L89.8879 23.0208L85.4527 10.303H89.0588L91.6185 19.3825H91.7472L94.331 10.303H97.9612L93.1558 24.0028C92.9251 24.6682 92.6111 25.2478 92.214 25.7415C91.8223 26.2404 91.3259 26.6242 90.725 26.8925C90.124 27.1661 89.3995 27.3029 88.5517 27.3029Z" fill="#4762E6"/>
<path d="M99.9736 22.6666V6.18176H106.284C107.476 6.18176 108.466 6.36957 109.254 6.7452C110.049 7.11547 110.642 7.62257 111.033 8.26652C111.43 8.91045 111.629 9.64024 111.629 10.4559C111.629 11.1267 111.5 11.7009 111.243 12.1784C110.985 12.6507 110.639 13.0343 110.204 13.3295C109.77 13.6246 109.284 13.8366 108.747 13.9654V14.1264C109.332 14.1586 109.893 14.3383 110.43 14.6657C110.972 14.9876 111.414 15.4437 111.758 16.0341C112.101 16.6242 112.273 17.338 112.273 18.1751C112.273 19.0283 112.066 19.7957 111.653 20.4771C111.24 21.1533 110.617 21.6873 109.786 22.079C108.954 22.4707 107.908 22.6666 106.646 22.6666H99.9736ZM102.96 20.1713H106.172C107.256 20.1713 108.036 19.9647 108.514 19.5515C108.997 19.133 109.238 18.5964 109.238 17.9417C109.238 17.4534 109.118 17.0134 108.876 16.6217C108.635 16.2246 108.291 15.9134 107.846 15.688C107.4 15.4572 106.869 15.3417 106.252 15.3417H102.96V20.1713ZM102.96 13.1926H105.914C106.429 13.1926 106.893 13.0987 107.306 12.9109C107.72 12.7177 108.044 12.4467 108.28 12.0979C108.522 11.7438 108.643 11.3252 108.643 10.8423C108.643 10.2037 108.417 9.67781 107.966 9.26461C107.521 8.85143 106.858 8.64482 105.978 8.64482H102.96V13.1926ZM118.3 22.9161C117.516 22.9161 116.811 22.7767 116.183 22.4976C115.56 22.2131 115.067 21.7946 114.702 21.2419C114.342 20.6892 114.162 20.0077 114.162 19.1973C114.162 18.4998 114.291 17.9229 114.549 17.4667C114.806 17.0107 115.158 16.6458 115.603 16.3721C116.049 16.0984 116.55 15.8918 117.108 15.7523C117.672 15.6074 118.254 15.5028 118.855 15.4383C119.58 15.3633 120.167 15.2961 120.618 15.2372C121.069 15.1727 121.396 15.0761 121.6 14.9473C121.809 14.8132 121.914 14.6066 121.914 14.3275V14.2792C121.914 13.6729 121.734 13.2034 121.375 12.8707C121.015 12.538 120.497 12.3716 119.821 12.3716C119.107 12.3716 118.541 12.5272 118.123 12.8385C117.709 13.1497 117.43 13.5173 117.286 13.9412L114.565 13.5549C114.779 12.8036 115.134 12.1758 115.627 11.6713C116.121 11.1616 116.725 10.7806 117.438 10.5284C118.152 10.2708 118.941 10.142 119.805 10.142C120.401 10.142 120.994 10.2117 121.584 10.3513C122.174 10.4908 122.713 10.7215 123.202 11.0435C123.69 11.3601 124.082 11.7921 124.377 12.3394C124.677 12.8868 124.828 13.571 124.828 14.392V22.6666H122.027V20.9682H121.93C121.753 21.3117 121.503 21.6336 121.181 21.9342C120.865 22.2293 120.465 22.468 119.982 22.6505C119.505 22.8275 118.944 22.9161 118.3 22.9161ZM119.056 20.7751C119.641 20.7751 120.148 20.6596 120.578 20.429C121.007 20.1928 121.337 19.8816 121.568 19.4953C121.804 19.1088 121.922 18.6876 121.922 18.2314V16.7745C121.831 16.8496 121.675 16.9195 121.455 16.9838C121.24 17.0482 120.999 17.1046 120.731 17.1529C120.462 17.2011 120.197 17.244 119.934 17.2817C119.671 17.3193 119.443 17.3514 119.25 17.3782C118.815 17.4373 118.426 17.5339 118.082 17.668C117.739 17.8022 117.468 17.99 117.269 18.2314C117.071 18.4676 116.972 18.7735 116.972 19.149C116.972 19.6857 117.167 20.0908 117.559 20.3645C117.951 20.6382 118.45 20.7751 119.056 20.7751ZM137.529 13.571L134.873 13.8607C134.798 13.5924 134.667 13.3402 134.479 13.1041C134.296 12.868 134.049 12.6775 133.738 12.5326C133.427 12.3877 133.046 12.3153 132.595 12.3153C131.989 12.3153 131.479 12.4467 131.066 12.7097C130.658 12.9726 130.457 13.3134 130.462 13.7319C130.457 14.0915 130.588 14.3839 130.857 14.6093C131.13 14.8347 131.581 15.0199 132.209 15.1646L134.318 15.6154C135.488 15.8677 136.357 16.2675 136.926 16.8148C137.5 17.3622 137.79 18.0786 137.795 18.964C137.79 19.742 137.562 20.429 137.111 21.0245C136.665 21.6149 136.046 22.0763 135.251 22.4091C134.457 22.7417 133.545 22.9081 132.515 22.9081C131.001 22.9081 129.783 22.5915 128.86 21.9583C127.937 21.3196 127.387 20.4315 127.21 19.2939L130.052 19.0202C130.18 19.5784 130.454 19.9996 130.873 20.2841C131.291 20.5684 131.836 20.7106 132.507 20.7106C133.199 20.7106 133.754 20.5684 134.173 20.2841C134.597 19.9996 134.809 19.6481 134.809 19.2296C134.809 18.8755 134.672 18.5829 134.398 18.3521C134.13 18.1215 133.711 17.9444 133.143 17.8209L131.034 17.3782C129.848 17.1314 128.97 16.7155 128.402 16.1307C127.833 15.5403 127.551 14.7945 127.556 13.8929C127.551 13.1309 127.758 12.4709 128.176 11.9128C128.6 11.3494 129.188 10.9147 129.939 10.6088C130.696 10.2976 131.568 10.142 132.555 10.142C134.004 10.142 135.144 10.4505 135.976 11.0676C136.813 11.6848 137.331 12.5192 137.529 13.571ZM143.112 15.4223V22.6666H140.198V6.18176H143.047V12.4038H143.192C143.481 11.7062 143.931 11.1562 144.537 10.7537C145.147 10.3459 145.927 10.142 146.87 10.142C147.729 10.142 148.478 10.3217 149.117 10.6813C149.754 11.0408 150.249 11.5667 150.597 12.2589C150.952 12.9512 151.129 13.7963 151.129 14.7945V22.6666H148.215V15.2453C148.215 14.4134 148.001 13.7668 147.571 13.3053C147.146 12.8385 146.551 12.6051 145.784 12.6051C145.269 12.6051 144.807 12.7177 144.399 12.9431C143.997 13.1631 143.68 13.4824 143.45 13.901C143.224 14.3196 143.112 14.8266 143.112 15.4223Z" fill="black"/>
<path d="M5.66663 24.0834L14.1666 15.5834L5.66663 7.08337" stroke="#4762E6" stroke-width="3" stroke-linecap="round" stroke-linejoin="round"/>
<path d="M17 26.9166H28.3333" stroke="#4762E6" stroke-width="3" stroke-linecap="round" stroke-linejoin="round"/>
</svg>
