<svg width="1440" height="147" viewBox="0 0 1440 147" fill="none" xmlns="http://www.w3.org/2000/svg">
<path opacity="0.25" d="M0 147V90.2947C57.348 63.0997 124.308 50.8865 189.6 55.9947C274.032 62.573 353.196 96.7995 437.76 101.932C526.368 107.273 614.808 81.2542 699.6 58.7387C782.724 36.6887 865.56 28.2608 950.88 42.7158C994.26 50.0658 1034.7 64.5697 1076.22 78.6572C1187.39 116.375 1335.6 164.505 1440 82.7242V147H0Z" fill="#131313"/>
<path opacity="0.5" d="M0 147V127.633C15.6 101.773 33.168 77.3465 57.228 58.7387C119.292 10.6942 198 11.025 269.496 34.8145C306.876 47.2482 341.604 66.7503 377.1 83.5695C426.204 106.845 478.776 139.919 534.096 144.415C577.608 147.907 619.176 132.876 652.416 105.754C690.54 74.6515 727.2 29.8042 776.772 16.3292C825.3 3.1115 874.392 24.5245 919.728 46.0722C965.064 67.62 1009.92 93.8472 1060.03 98.8085C1131.71 105.975 1195.97 70.7805 1262.71 51.2295C1298.95 40.621 1333.51 43.6712 1367.22 60.417C1394.14 73.7572 1424.82 93.4062 1440 120.736V147H0Z" fill="#131313"/>
<path d="M0 147V140.103C179.916 74.725 376.908 59.633 570.996 94.8517C622.596 104.211 672.072 119.499 724.128 127.265C794.928 137.837 859.104 112.271 922.8 83.9003C993.516 52.4055 1063.2 30.331 1141.44 36.75C1245.28 45.325 1348.39 92.7448 1440 140.642V147H0Z" fill="#131313"/>
</svg>
