<svg width="1438" height="147" viewBox="0 0 1438 147" fill="none" xmlns="http://www.w3.org/2000/svg">
<path opacity="0.25" d="M-2 147V90.2947C55.348 63.0997 122.308 50.8865 187.6 55.9947C272.032 62.573 351.196 96.7995 435.76 101.932C524.368 107.273 612.808 81.2542 697.6 58.7387C780.724 36.6887 863.56 28.2608 948.88 42.7158C992.26 50.0658 1032.7 64.5697 1074.22 78.6572C1185.39 116.375 1333.6 164.505 1438 82.7242V147H-2Z" fill="white"/>
<path opacity="0.5" d="M-2 147V127.633C13.6 101.773 31.168 77.3465 55.228 58.7387C117.292 10.6942 196 11.025 267.496 34.8145C304.876 47.2482 339.604 66.7503 375.1 83.5695C424.204 106.845 476.776 139.919 532.096 144.415C575.608 147.907 617.176 132.876 650.416 105.754C688.54 74.6515 725.2 29.8042 774.772 16.3292C823.3 3.1115 872.392 24.5245 917.728 46.0722C963.064 67.62 1007.92 93.8472 1058.03 98.8085C1129.71 105.975 1193.97 70.7805 1260.71 51.2295C1296.95 40.621 1331.51 43.6712 1365.22 60.417C1392.14 73.7572 1422.82 93.4062 1438 120.736V147H-2Z" fill="white"/>
<path d="M-2 147V140.103C177.916 74.725 374.908 59.633 568.996 94.8517C620.596 104.211 670.072 119.499 722.128 127.265C792.928 137.837 857.104 112.271 920.8 83.9003C991.516 52.4055 1061.2 30.331 1139.44 36.75C1243.28 45.325 1346.39 92.7448 1438 140.642V147H-2Z" fill="white"/>
</svg>
