<svg width="1440" height="147" viewBox="0 0 1440 147" fill="none" xmlns="http://www.w3.org/2000/svg">
<path opacity="0.25" d="M0 0V56.7053C57.348 83.9003 124.308 96.1135 189.6 91.0053C274.032 84.427 353.196 50.2005 437.76 45.0678C526.368 39.7268 614.808 65.7458 699.6 88.2613C782.724 110.311 865.56 118.739 950.88 104.284C994.26 96.9342 1034.7 82.4303 1076.22 68.3428C1187.39 30.625 1335.6 -17.5053 1440 64.2758V0H0Z" fill="white"/>
<path opacity="0.5" d="M0 0V19.3673C15.6 45.227 33.168 69.6535 57.228 88.2613C119.292 136.306 198 135.975 269.496 112.186C306.876 99.7518 341.604 80.2498 377.1 63.4305C426.204 40.1555 478.776 7.0805 534.096 2.58475C577.608 -0.9065 619.176 14.1243 652.416 41.2458C690.54 72.3485 727.2 117.196 776.772 130.671C825.3 143.888 874.392 122.476 919.728 100.928C965.064 79.38 1009.92 53.1528 1060.03 48.1915C1131.71 41.0253 1195.97 76.2195 1262.71 95.7705C1298.95 106.379 1333.51 103.329 1367.22 86.583C1394.14 73.2427 1424.82 53.5938 1440 26.264V0H0Z" fill="white"/>
<path d="M0 0V6.89675C179.916 72.275 376.908 87.367 570.996 52.1483C622.596 42.7893 672.072 27.5013 724.128 19.7348C794.928 9.163 859.104 34.7287 922.8 63.0997C993.516 94.5945 1063.2 116.669 1141.44 110.25C1245.28 101.675 1348.39 54.2552 1440 6.35775V0H0Z" fill="white"/>
</svg>
